<?xml version="1.0" encoding="UTF-8" standalone="no"?>
<!-- Created with Inkscape (http://www.inkscape.org/) -->

<svg
   width="139.48833mm"
   height="40.640011mm"
   viewBox="0 0 139.48833 40.640011"
   version="1.1"
   id="svg5"
   xml:space="preserve"
   inkscape:version="1.2.2 (732a01da63, 2022-12-09)"
   sodipodi:docname="usti.svg"
   xmlns:inkscape="http://www.inkscape.org/namespaces/inkscape"
   xmlns:sodipodi="http://sodipodi.sourceforge.net/DTD/sodipodi-0.dtd"
   xmlns="http://www.w3.org/2000/svg"
   xmlns:svg="http://www.w3.org/2000/svg"><sodipodi:namedview
     id="namedview7"
     pagecolor="#ffffff"
     bordercolor="#666666"
     borderopacity="1.0"
     inkscape:showpageshadow="2"
     inkscape:pageopacity="0.0"
     inkscape:pagecheckerboard="0"
     inkscape:deskcolor="#d1d1d1"
     inkscape:document-units="mm"
     showgrid="false"
     inkscape:zoom="1.5393939"
     inkscape:cx="195.8563"
     inkscape:cy="180.26575"
     inkscape:window-width="1920"
     inkscape:window-height="1051"
     inkscape:window-x="-9"
     inkscape:window-y="290"
     inkscape:window-maximized="1"
     inkscape:current-layer="layer1" /><defs
     id="defs2" /><g
     inkscape:label="Layer 1"
     inkscape:groupmode="layer"
     id="layer1"
     transform="translate(-10.554086,-17.359185)"><path
       style="fill:#000000;stroke-width:0.211667"
       d="m 10.582911,50.537945 c 0.01585,-4.10369 0.06885,-7.22313 0.117778,-6.93209 1.522027,9.05432 8.109475,13.03921 20.901535,12.64379 l 3.585636,-0.11083 5.650861,-2.8083 5.650859,-2.8083 0.681063,-1.12375 c 1.017461,-1.6788 1.640929,-3.37766 2.004312,-5.46146 0.259946,-1.49063 0.3258,-3.74518 0.3258,-11.15387 0,-5.10709 -0.04833,-9.28562 -0.107402,-9.28562 -0.05907,0 -2.583195,1.23861 -5.609167,2.75246 l -5.501765,2.75245 v 5.66975 c 0,6.39814 -0.154523,7.43987 -1.378247,9.29157 -1.357681,2.0544 -3.765048,2.93968 -7.509109,2.76139 -2.992693,-0.14252 -4.250466,-0.58102 -5.646253,-1.96847 -0.880307,-0.87505 -1.178677,-1.36436 -1.534584,-2.51666 -0.417068,-1.3503 -0.441808,-1.9092 -0.441808,-9.98061 v -8.55021 h 7.801224 7.801224 l 6.502695,-3.175 6.502692,-3.175 h 49.831075 49.83109 v 0.9525 0.9525 h -8.78323 -8.78323 l -6.24511,3.12042 c -3.4348,1.71622 -6.2451,3.1926 -6.2451,3.28083 0,0.0882 3.91549,0.16042 8.70109,0.16042 h 8.70109 l 6.25283,-3.06917 c 3.43906,-1.68804 6.28632,-3.06917 6.32725,-3.06917 0.0409,0 0.0744,8.62013 0.0744,19.15584 v 19.15584 H 80.298255 10.554086 Z m 66.415339,5.55082 c 1.95826,-0.20625 2.0655,-0.24762 6.394405,-2.46669 4.96306,-2.54415 4.80879,-2.38918 5.27336,-5.29686 0.40998,-2.56602 -0.16738,-5.04167 -1.48251,-6.3568 -2.11439,-2.11439 -4.56027,-2.73522 -14.399418,-3.65495 -6.084215,-0.56874 -7.392565,-0.77116 -8.043335,-1.24442 -1.22887,-0.89367 -0.45798,-2.14021 1.58598,-2.56454 1.47578,-0.30637 7.667608,-0.17569 8.812478,0.18599 0.97024,0.30651 1.87822,1.20248 1.87822,1.85339 v 0.50031 h 5.397495 5.3975 l -0.009,-0.79375 c -0.0118,-1.06487 -0.58224,-2.57369 -1.41791,-3.75039 -2.40192,-3.38217 -10.444855,-5.26649 -19.528283,-4.57512 l -3.06917,0.2336 -4.80926,2.36823 c -4.680967,2.30505 -4.818692,2.39111 -5.162358,3.22575 -0.194198,0.47163 -0.398793,1.57998 -0.454658,2.463 -0.195057,3.08322 0.86955,5.08723 3.374206,6.35158 2.31339,1.16779 5.0249,1.63971 13.29624,2.3141 7.129028,0.58125 7.831668,0.7825 7.831668,2.24308 0,1.14763 -0.31726,1.5176 -1.64549,1.91888 -0.95168,0.28752 -2.00762,0.36565 -4.916183,0.36376 -5.413395,-0.004 -7.283925,-0.55249 -7.710245,-2.26276 l -0.19608,-0.78663 h -5.36017 -5.360167 v 0.82437 c 0,1.60334 0.769935,3.50256 1.938067,4.78068 1.92053,2.10137 5.90585,3.57423 11.07943,4.09464 2.64452,0.26601 8.912718,0.2835 11.304998,0.0316 z m 36.47875,-1.3022 3.12208,-1.52681 v -3.25371 c 0,-2.99966 -0.0289,-3.24511 -0.37041,-3.14347 -2.93068,0.87222 -7.81982,0.99459 -8.8751,0.22213 -1.26106,-0.9231 -1.43665,-1.66502 -1.51217,-6.38926 l -0.0685,-4.28625 h 5.4131 5.4131 v -3.91584 -3.91583 h -5.3975 -5.3975 v -2.54056 -2.54056 l -7.831655,3.91695 -7.83167,3.91695 v 2.53944 2.53945 l 5.02708,0.0123 5.027085,0.0123 -2.397785,1.20478 -2.39779,1.20479 0.084,5.29167 c 0.0936,5.89148 0.22065,6.57936 1.55536,8.41857 1.86075,2.56408 5.046865,3.69108 10.564515,3.73691 l 2.75167,0.0229 3.12208,-1.5268 z m 12.96458,-0.97697 4.86834,-2.4848 0.0546,-12.32614 c 0.03,-6.77937 0.005,-12.32614 -0.0546,-12.32614 -0.0601,0 -2.39447,1.14339 -5.18754,2.54086 l -5.07831,2.54084 v 12.27582 c 0,9.68261 0.0559,12.27461 0.26459,12.2701 0.14552,-0.003 2.45533,-1.12389 5.13291,-2.49054 z M 10.554086,23.169715 v -5.81053 h 11.571112 c 6.364111,0 11.531423,0.0336 11.482918,0.0747 -0.04851,0.0411 -5.255508,2.65583 -11.571113,5.81053 l -11.482917,5.73583 z"
       id="path302" /></g></svg>
