<?xml version="1.0" encoding="utf-8"?>
<!-- Generator: Adobe Illustrator 21.1.0, SVG Export Plug-In . SVG Version: 6.00 Build 0)  -->
<svg version="1.1" id="Layer_1" xmlns="http://www.w3.org/2000/svg" xmlns:xlink="http://www.w3.org/1999/xlink" x="0px" y="0px"
	 viewBox="0 0 1000 1000" style="enable-background:new 0 0 1000 1000;" xml:space="preserve">
<style type="text/css">
	.st0{fill-rule:evenodd;clip-rule:evenodd;fill:#FFFFFF;}
	.st1{fill:#3FA535;}
	.st2{fill:#00A0E0;}
	.st3{fill:#FFFFFF;}
</style>
<g>
	<polygon class="st0" points="-1,0 999.8,0 999.8,1000.8 -1,1000.8 -1,0 	"/>
	<path d="M675.4,736.1c-24.9,5.6-49.5,11.7-73.6,20.3C586,762,570,767.1,554,772.2c-13.1,4.1-26.9,12.5-40.7,13.6
		c0.5-1.2,0.8-2.5,0.8-3.8c-1.8,1.1-3.6,1.1-5.5,0c1.8-2.2,3.9-4,6.3-5.5c-1.1,0.4-2.2,0.4-3.4,0c9.6-6.5,24.5-14.6,35.7-17.1
		c5-1.2,27.6-5.3,21.5-15.3c-6.8,1.7-12.6,2.9-18.6,6c-3.6,1.8-15,8-18.9,6.7c7.6-14.4,17.6-31.8,18.8-50.9
		c2.3-15,0.8-30.4-1.7-42.9c-6.8-26.2-17.8-53.4-33.9-75.1c-16.9-22.8-43.8-20.4-66.1-19.1c0-7.9,3.8-29.1,6.1-36
		c13.6-6.5,29.1-13.2,36-27.6c8.6-17.8,9.9-39.1,17.1-57.7c3.2-8.2,9.4-23.3,6.3-31.2c-1.5-3.9-5-9.5-8.2-12.8c1.4-4,2.3-8,3.1-14.4
		c3.1-25.4-22.5-56.8-49.6-42c1.6-13.2,11.1-22.3,3.9-36.1c-8-15.3-34.2-16.3-49.1-18.3c-3.5-0.5-11.2,0.3-14.1-1.9
		c-2.7-11.7-7.1-16.4,6.8-19.7c20.7-4.8,40.4-9.6,59.2-19.8c20-10.8,36.9-45.5,13.9-63c-33.8-25.7-82.3-37.8-124.2-36.1
		c-91.4,3.7-166.7,90.4-191.5,173.3c-10.8,36.1-10.7,79.8,5.4,114.5c1.6,3.5,5.8,8,5.4,11.8c-0.7,7.1,0,13.1,3.4,19.6
		c10.5,20.1,29.1,26.5,47.7,36.1c-23.6,25.8-50.4,56.1-62.5,89.3c-2.4,6.7-7,16.1-10.1,25.1c-17.4,1.1-25.8,23.1-22.1,45.8
		c-0.8-4.9-27.5-22.7-24.9-26.9c5.2-8.3,12.4-3.9,20.1-8.9c3-1,5.2-2.8,6.7-5.5c3.9-6.3-3.5-1.8-4.5-5.1c-1-3.5,11.2-14.2-1.5-13
		c-7.6,0.8-14.9,6.9-22.1,9.2c-7.7,2.5-27.7,4.5-21.6,16.7c15.6,14.8,28,31.6,41.7,48c-2.7,2.6-12.8-11.8-14.4-13.7
		c-5.4-6.5-9.7-14-18-11.9c-4.5-6.1-10.6-12.5-15.9-18c-2.6-2.7-9.8-11-9.8-3.1c-1.5,0.8-2.8,0.5-3.8-0.8c1.2,1,1.7,2.3,1.7,3.8
		c-11.4-1,25.1,21.2,10.9,24c-10.6-8.6-20.4-18.4-32.4-25.2c0,13.8,0,27.5,0,41.3c0,17.4,18.4,27.5,27.8,42.9
		c-8.9-8.9-18.4-17.7-27.8-26.1c-2.5,12.3,11.9,17.7,18.9,25.2c-8.9,3.8-12.7-6.1-18.9-8.8c0,12.7,7.5,12.4,14.3,22.3
		c-4.9,0.4-10.3-4.3-14.3-7.2c0,2.9-1.4,11.4,0,13.9c11.9,4.4,22.8,11.4,32.4,19.8c-10.7,0.7-22.4-5.6-32.4-9.3c0.8,2.5-2,8.4,2.9,8
		c-0.5-0.7-1.5-2.1-1.7-2.9c12.5,1.2,23.2,8.9,35.8,9.7c10.4-2.6-14.2-18.9-15.6-20.2c0.1-0.1,0.3-0.3,0.4-0.4
		c9.6,3.9,19.6,6.6,29.4,9.8c2.4,0.8,12.1,6.3,14.8,5.4c-2.5-10.6-10.9-17.1-12.6-27.8c9.8,2.7,23,11.1,30.9,17.3
		c6,4.7,17.7,14.8,25.9,11.7c0-4.4-15-9.7-17-14.7c-5.8-14.6,18.5,5,21.2,3.8c-2.3-4.6-6.8-7.6-9.7-11.8c-0.9-1.9,3.7-2.1,1.6-3.5
		c-3.2-2.2-16.8-16.7-15.9-21.8c-0.3-0.6,6.7,5.2,5.8,4.8c5.6,2.1,1.9,3.3,5.6,6.9c4.5-4.6,21.1,25.7,27.8,24c0.5-10,14,7.8,16,10.9
		c-2.7-0.2-5.3-0.2-8,0c0,10.2,17.6,14.7,23.1,20.6c-11,0.9-22.3-4.2-33.7-3.4c7.9,14.1,42,4.6,54.7,13.9c9.8,1.6,23.2,6.9,31.8,12
		c3.1,1.8,6.8,5.3,10.7,2.7c1.3-2.6-3.5-3.1-2.5-5.5c-0.2,0,16.1,4,6.3-0.8c-11.1-7.6-22.5-14.9-34.4-21.1
		c-10.4-5.5-21.2-10.1-32.5-13.4c-5.2-1.6-17.1-12.8-7.6-15.1c5.1,0.4,10.6,6.8,14.5,9.8c2.6,2,5,4.4,8.2,5.3c1.8-0.9,2.4-5.1,5-3.9
		c4,1.8,29.2,21.8,31.6,19.4c-0.4-0.3-12.2-8.2-6.7-9.3c10.5,3.9,14.7,22.5,26.9,25.2c3.6-1.2-7.3-15.1-8.3-17.2
		c-7.1-14.2-8.9-29.5-7.9-45.5c1.9-30.9,11.5-60.3,28.7-85.7c18.5-27.3,32.7-47.9,67.7-51.8c15.3-1.6,30.3,5.1,35.7,13.6
		c9.4,14.4,13.6,34,6.1,50.4c-7.6,16.7-15.8,33.6-18.5,52c-0.8,8.7-5.9,16.2-6.7,24.8c0.6,3.8,0.6,7.6,0,11.4
		c2.8,2.2,4.9,5.1,6.6,8.2c5.5,10.6-9.2,18.8-17.5,25c-7.8,6.7-17.1,11.4-24.8,18.2c-10.4,9.1-0.4,11.9,8,6.6
		c7.6-3.4,14.3-8.8,22.3-11.4c3.6,0,2.1,5.2,7.5,3.6c4.5-1.4,8.5-3.6,12-6.2c3-1.9,4.4-1.3,4.2,1.7c-2.3,4.4-8.5,6.3-12.7,8.4
		c-5.9,2.9-30.4,16.2-24.4,26.2c7,9.8,28.1-11.3,35.8-10.5c-3,1.5-23.2,21.3-8.8,18.9c2.8,0.5,9-3.4,11.9-4.5
		c7.9-3,20.6-7.3,33.1-9.7c-11.1,1.2-36.2,3.7-36.7,4.7c2.6-5.2,9.5-10.3,15-11.5c12.2-2.7,23.3-7.9,35.6-11.8
		c5.5-3.8,63.9-32,66.9-26.1c-3.3,6.3-10.9,8.7-13.9,15.1c-6.3,3.9-15.2,3.1-19.8,9.7c5.3,8,90.4-32.3,101.4-35.8
		c18.6-5.9,37.1-11.4,55.9-16.6c19.8-5.4,49.8-17.5,70.2-12.4c-11.6,9.3-33.7,11.6-48,15.7c-12,3.4-24,6.6-36,10
		c-4.8,1.3-25.8,3.3-27.5,8.4c31.7-7.8,63.2-16.6,94.9-24.2c7.4-1.8,29.6-2.5,30.6-12.8C716.2,726.3,680.4,735,675.4,736.1
		L675.4,736.1z"/>
	<path d="M456.1,823.6c-4.3,4.3-10.4,5.4-15,9.3c-2,1.7-4.6,9.4,0.7,6.7c4.6-11.7,20.6-8.5,25.2-17.7c-2.5-5.1-20.3-2-30.1-0.1
		C444.3,821.1,451.1,821.4,456.1,823.6L456.1,823.6z"/>
	<path d="M436.9,821.8c-3.3,0.3-6.8,0.8-10.2,1.5c2.1-0.2,3.8-0.4,4.7-0.5C432.4,822.6,434.4,822.3,436.9,821.8L436.9,821.8z"/>
	<path class="st1" d="M558.3,708.3c5.3,4.6,19.9-7.5,22.5-0.2c3.2,9,20.1,1.7,26.3-0.6c19.8-7.5,40-12.8,60.4-18.3
		c13.8-3.7,27.7-7.1,41.7-9.9c6-1.2,26.2-2.9,24.2-10.9c-20.5,5-40.9,10.8-61.3,16.2c-19.9,5.2-41.8,13.8-62,15.8
		c7.8-6,17.4-9.1,26.2-13.3c3.3-1.6,10.4-4,12.9-6.9c1-3.3,0.7-5.3-2.9-4.4c-6.2,1.5-7.5-1.1-14.2,1.3c-6,2.2-11.8,4.9-17.7,7.5
		c-8.3,3.7-18.3,10.6-27,12.8c0-6.6,26.6-20.7,32.1-24.4c14.1-9.5,28.2-19.1,43.6-25.7c2.8-0.5,23.2-5.8,23.7-3.9
		c1.7,6.2-6.3,12.1-10.2,15.7c-4.4,4-15.2,6.7-18.1,10.5c-2.8,8.5,15.5-1.3,16-1.8c8.4-7.1,17.1-14.2,22.7-23.9
		c-18.5-9.2-39.5,1.3-56,9.7c-11.3,5.8-22.3,12.3-33,19.1c-5.2,3.3-22.3,19.2-28.8,17c3.4-14.4,10.8-27.5,18.1-39.8
		c7.4-12.4,15.4-26.4,25.3-37.3c7-7.6,11.3-13.6,18.9-20.6c5.2-4.7,3.7-19.4-7.1-10c-11.1,9.7-17.7,26.3-24.7,39
		c-6.4,11.7-13.9,31.2-24.5,39.5c-3.9,3.1-31,21.5-31.9,18.9c-2.2-6.9,1.8-12.5,6.6-17c3.9-3.6,10.7-13.4,15.4-15.4
		c-7.5-1.9-19,13.1-26.4,18.1c-0.2-0.8-0.5-1.7-0.7-2.5c2.7,13.7,4.4,31,1,47.3C552,707.7,555.7,706,558.3,708.3L558.3,708.3z"/>
	<path class="st2" d="M488.3,357.5c-5.8-4.1-14.9-7.7-23.4-6c-11.4,2.3-16.6,11-23.9,20.5c-2.4,3.1-5.4,7.1-8.1,10.3
		c-4.2,5.1-7.1,9.2-9.7,15.5c-2.5,0.4-3.8,3.8-6.7,2.9c-4-0.9-2.4-3-1.5-5.2c-3.1-2.8-8.1-7.7-11.9-13c-5.7-8-10.8-22.3-10.1-28.9
		l1.3,0.1c0,0,0,0,0,0c0.4-0.8,1.3-2.1,2.1-2.1c4.9-0.3,11.1-0.5,16,0.3c0.7-3.9-3.7-6-7.1-6.6c-3.8-0.6-8.8-0.4-12.2,2.5
		c-0.8-2.5,2.9-3.4,4.6-5c8-2.5,14.7,2.5,20.2,8.4c3.8,0.4,7.6,1.3,10.5,3.8c0.4,0.8,0.8,2.1,0,2.5c-1.3,1.7-2.9-0.4-4.2-0.4
		c1.7,5.5,5,10.1,8.4,14.7c4.6-3.8,8-10.1,9.3-16.4c-7.6-11.4-21.9-13.5-32.8-20.6c-2.1-1.3-2.1-3.8-2.5-5.9c0-0.3,0.1-0.6,0.1-0.8
		c-37-17.1-68.4,4.7-81,16c0.1,1.5-0.7,3.3-2,4.6c-3.8,6.3-7.3,12.6-13,19.8c-6.5,8.2-12.6,15.9-17.2,24.4
		c-2.9,5.3-5.5,9.3-6.7,14.3c-1.3,5.9-5.5,11.8-2.5,17.7c-2.5,2.1-5.5,2.5-8.8,1.7c-10.9-8-26.5-7.2-40-5.9
		c-11.4,0.4-19.2,6-29,12.6c-7.7,5.2-17,13.7-15.1,24.4c1.8,10.4,5.3,15.4,10.5,21.9c5.7,7,9.4,8.9,17.2,13.5
		c1.2,0.7,2.9,2.1,4.2,0.4c-2.1-7.2,2.1-13.5,7.2-18.1c2.5-2.1-0.8-3.8-2.1-5.5c-2.1-3.4-3.4-6.7-1.7-10.9
		c-7.6-0.8-14.7,3.4-21.9,2.5c0-2.1,2.1-1.7,2.9-2.9c11.8-4.6,26.5-6.3,39.1-2.5c4.2,0.8,8.8,4.6,12.6,1.7l12.2-13.9
		c10.4-7.6,16.8-15.6,28.2-16.8c5.5,0.8,12.6-0.8,16.4,4.2c2.3-1,3.8-2.1,5-3.4c6.7-2.5,13.5-6.3,20.2-2.5c4.2,1.7,4.6,5.9,6.3,9.3
		c0.8,2.1-0.8,4.6,0.8,6.3c6.7,2.9,14.7,0.8,20.2,6.7c5.9,6.3,11.4,13.9,8,22.3c-6.7,12.6-18.5,21.5-26.9,33.2l-2.1,3.8
		c2.5,0.8,5.5,1.3,8,1.7c25.7,0,52.7-8.9,74.9-21.5c5.2-3,9.9-6.7,14.3-10.8c4.7-4.4,10-7.7,14.6-12.2c4-3.9,7.6-8.4,11-12.8
		c2.8-3.6,8.2-10,7.6-14.9c-10.3,7.2-37.9,20.3-48.4,7.6c-1.3-1.7-2.1-3.8-1.3-5.9c1.7-5.5,6.7-2.9,10.5-2.9c8-2.1,16-1.3,23.1-5
		c14.7-5,31.6-13.5,37.9-29.5C508.7,384.8,499.6,365.5,488.3,357.5L488.3,357.5z"/>
	<path class="st3" d="M403.1,382.6c3.7,5.3,8.8,10.3,11.9,13c0.3-0.8,0.5-1.6,0.3-2.4c5.5-4.2,10.3-10.8,14.1-16.7
		c-1.7-3.2-3.2-5.6-4.9-7.7c-2.4,1.4-4,2.4-8.1,1.9c-3.7-0.5-6.2-2.1-9.6-5.7c-2.9-3.1-1.7-6.1-1.5-8.9c-2.5-0.8-10.2,0.5-11.1-2.4
		l-1.3-0.1C392.3,360.3,397.4,374.5,403.1,382.6L403.1,382.6z"/>
	<path class="st3" d="M406.6,328c0.6-1.4,2.9-0.7,3.6-2.6c10.5-0.4,22.3-2.9,30.7,3.8c2.9,6.3-5.9,9.3-5,14.3
		c4.6,2.1,9.7,9.7,15.1,5c-1.7-7.2,2.9-12.6,4.6-18.9c0.4-6.7-1.3-12.6-3.8-18.5c-4.2-7.2-13.1-10.1-20.8-11.8
		c-15.3-3.4-29.7-5.5-46.1-4.6c-15.1,2.5-31.7,2.5-47.5,5.5c-11.5,2.1-17.5,2.9-28.6,5.9c-12.7,3.4-24.1,6.3-36.6,8.8
		c-1.7,0.3-4.2-3.8-4.2-6.7c0.8-8,11.1-7.7,16-8.4c33.4-4.7,68.2-8,102.2-10.1c-3.1-17-7.8-14.1-22.4-11.8
		c-11,1.7-24.3,4.2-33.1-4.6c-4.1-8.3,21.7-2.9,24.2-3.1c14.4-1,28.5-3.2,42.8-5.1c21.2-2.7,59.7-7.3,73.9-25.1
		c15.6-19.5,9.5-36.6-10.5-50.9c-38.3-24.5-95-35.9-138.7-25.8c-41.5,9.6-68.6,41.6-96.4,71.5c-23.6,25.5-37.8,61.7-46.2,95
		c-6.7,26.6-10.1,77.1,9.3,101.2c11.8-8,20.5-12.6,34.2-16.5c13.9-3.9,34.8,0,37.9,0.4c5.5,0.7,6.7,2.5,9.7-0.4
		c13.9-25.2,31.6-48.8,52.2-71.1l2.1-0.8c0.2,0.4,0.3,0.8,0.3,1.3C338.2,332.8,369.5,311,406.6,328L406.6,328z"/>
	<path d="M397.6,319.6c6.1,1.1,7.8,3.3,5,6.7c-9.7,1.3-21.7-1.3-29.9-6.7C376.8,311.6,392.9,319.6,397.6,319.6L397.6,319.6z"/>
	<path d="M358.5,325.5c0.4,0.4,0.8,0.8,0.4,1.7c-1.7,3.8-3.4-0.4-5.5,0c-3.8,0-6.3-1.7-9.3,0.8c-1.7,2.9-4.2,6.3-2.9,9.7
		c-1.3,9.3-1.3,17.7-2.9,26.5c-1.3,1.7-0.8,5.5-3.8,5.9c-1.7,0.4-2.1-1.3-2.5-2.1c-0.4-4.2-6.3-5.5-4.6-10.9
		c0.8-8,5.5-14.7,8.4-21.9c3.8-3.8,6.3-10.9,12.6-11.8L358.5,325.5L358.5,325.5z"/>
	<path class="st2" d="M504.9,413.4c2.9,4.6,2.9,12.2,1.3,17.7c-0.8-3.4-2.9-7.6-6.3-10.1c-1.3-1.3-5.5,0-3.8-2.9l5.9-7.6
		C503.6,410.5,504,412.1,504.9,413.4L504.9,413.4z"/>
	<path d="M412.7,469.8c0.8,2.1,0.8,4.6-0.8,6.7c-4.2,0.4-7.6,1.7-11.4,3.8c-5.5,3.4-13.5,5-16,11.8c-1.7,0-3.4,0.8-5,0.4
		c-1.7-1.7-0.4-3.4,0-5c8.8-9.3,19.8-13.9,30.3-19.8C411.1,467.3,411.9,468.9,412.7,469.8L412.7,469.8z"/>
	<path class="st3" d="M379.1,516.1c0.4,1.3,0,2.5-0.4,3.4C377.8,518.6,377,515.6,379.1,516.1L379.1,516.1z"/>
	<path class="st2" d="M382.9,548l-0.4,1.3c-5,5.5-10.1,10.5-16,15.1c2.1-7.2,8.8-12.6,14.7-17.7C382,546.8,382.4,547.2,382.9,548
		L382.9,548z"/>
	<path class="st3" d="M490.2,578.7c14.1,2.6,25.4,21.4,30.3,33.7c8.1,17,14.3,33.9,19.2,52.2c4.3,16.2,5.7,32.5,2.3,48.9
		c-1.9,9.1-5.2,17.9-9,26.4c-1.9,4.3-6.1,19.7-11.2,21c-0.4-0.8,0.4-2.1-0.4-2.5c-6.7,10.5-18.9,11.8-28.6,17.3
		c-18.1,8.4-36.2,17.3-54.7,24.8c-2.1,0.8-3.4,2.1-5.9,1.7c-0.8-1.3,0-3.4-0.4-5c2.9-5.1,10.1-2.1,12.2-8c2.9-8,13.5-8.8,16.8-16.8
		c2.5-0.4,4.2-3.8,7.6-2.9c8-5.5,16-11.4,24-17.3c11.4-6.3,21.5-16,32-25.7c1.3-1.3,2.9-2.5,2.1-4.2c-2.9-2.1-6.3,0-8.8,0.8
		c-2.9,2.1-7.1,2.9-8.4,5.5c2.5,0,5.5-2.1,8-2.1c-8.4,9.7-20.2,16.4-29.9,24.4c-7.6,4.6-14.3,10.1-21.9,14.7
		c-0.4,2.9-3.8,2.1-5.1,3.8c-5.5,2.5-10.1,7.6-16,8.8c2.9-8.8,2.5-19.8,12.2-25.2c2.5-2.1,7.2-3.8,5.9-7.6c-3.8,0-5.5,5.1-9.3,5.1
		c0.8-5.9,1.7-13,2.9-19.4c4.2-1.3,0.4-6.7,1.3-10.1c-5.9-28.2-9.7-57.2-14.3-85.4c0-5.5-0.4-10.9-0.8-16.4
		c-4.6,9.7-0.4,22.7-0.4,33.2c4.6,21.5,8,43.3,12.6,64.8c-2.1,5.9,0,12.6-2.5,18.1c-1.3,10.5-1.7,21.9-12.6,27.8
		c-8,5-15.6,11.8-23.6,17.3c-1.7-3-1.7-8,0.8-10.9c2.9-3.4,6.7-5.5,9.3-9.7c-5,0.4-6.7,7.1-11.8,8c-1.7-3.4,0.8-7.2,1.3-10.1
		l3.4-16.8c9.6-10.6,11.5-28.2,12.5-41.8c1.3-17.5-2.5-38.7-10.8-54.2c-3.4-6.2-4.3-16-5.2-23.1c-0.9-7.2-0.2-16,2.5-22.8
		c6.1-15.4,27.1-27,43.2-24.3C470.4,574.1,481.3,575,490.2,578.7L490.2,578.7z"/>
	<path d="M477.5,579.6c-1.3,0.8-3.4,0.4-5,0.8c-1.3,0.4-2.5,1.3-3.8,1.3C471.2,580,474.6,578.7,477.5,579.6L477.5,579.6z"/>
	<path d="M467,582.1c0,1.3-1.7,1.3-2.5,1.7l0,0C464.9,583,466.2,582.5,467,582.1L467,582.1z"/>
	<path d="M459,587.6c0-0.8,1.7-1.7,2.5-2.1C461.5,586.3,459.9,587.2,459,587.6L459,587.6z"/>
	<path d="M450.6,593.5l-0.4-0.4c0.8-0.8,2.1-2.1,3.4-2.1L450.6,593.5L450.6,593.5z"/>
	<path d="M448.1,594.7c-1.7,1.3-2.5,3.8-5,3.8C444.7,597.7,446,594.7,448.1,594.7L448.1,594.7z"/>
	<path d="M441.3,601c-0.8,2.9-3.4,6.3-4.6,9.7c-0.8,2.1-0.4,5.9-2.5,6.3C434.2,611.1,436.3,604.4,441.3,601L441.3,601z"/>
	<path d="M380.3,608.6c-3.4,0.8-7.6-0.8-11.4,0.4c-5.9,1.3-11.4,3.4-16.8,5.9l-0.4-0.8c8-5.1,18.5-9.3,28.6-5.9V608.6L380.3,608.6z"
		/>
	<path class="st3" d="M172.1,609c4.8,6.6,18,21.8,47.5,35.3c0,0-9.7,12.6-15.1,17.2c-10.1-5.9-18.5,4.2-26.5,9.7
		c0,0.4-0.8,0.8-0.4,1.3c2.1,1.3,3.4-2.5,5.5-3.4c5-2.1,10.1-7.2,16.4-4.6c0.8,0.4,0.4,2.1,0,2.5c-2.9,3.8-7.6,6.7-7.2,11.4
		c0.8,2.1,2.9,1.3,4.2,0.4c6.4-6.4,11.5-14.8,17.7-21.7c6.5-7.3,14-14.9,21.8-20.8c11.6-8.8,37.9-5,44.6,9.3
		c-9.7,17.7-14.3,37-20.6,56c-0.8,1.3-2.5,1.7-3.4,0.8c-1.7-1.3-2.5-2.9-2.5-4.6c-2.9-2.1-2.5-5.5-4.2-8c-5-5.5-8.8-15.6-17.7-14.3
		c-1.7,0.8-2.5,2.9-1.7,4.6c11.4,7.6,14.7,20.2,20.6,30.7c-0.4,2.9,2.5,4.6,4.6,5.5c0,8-2.1,15.1-1.3,23.1c1.3,4.2-1.7,7.6,0.4,11.4
		c0,1.3-0.8,2.1-0.8,3.4c-1.7,0.8-2.5-1.3-2.9-2.5c-2.1-10.5-2.1-20.6-2.5-31.6c-0.4-1.3-1.3-2.5-2.5-3.4c-1.7-0.8-3.8,1.3-4.6,2.9
		c-0.4,4.2,2.1,8,0.8,12.2c-4.6-4.6-3.8-15.6-12.2-15.6c-4.2-5.5-8-12.2-13.9-16c-2.5,3.4-10.5-3-9.3,5c4.2,7.2,10.1,13.9,11.8,21.9
		c-3.8,1.3-6.3-2.9-9.3-4.2c-4.6-5.9-9.7-11.4-14.7-16.4c0,0,0,0-0.4,0.4c0.8,2.5,6.3,5,2.9,8h-1.3l-26.9-25.7
		c-2.1-0.4-4.6,2.5-6.3,0l2.9-3.4c-5.5-3.4-5.5-8.4-5-14.3c-0.8-21.5,1.7-44.2,10.5-62.7H172.1L172.1,609z"/>
	<path class="st3" d="M308,616.2l-1.3,0.8c-0.8-0.8,0.4-1.7,0.8-2.1C308.4,614.5,308,615.8,308,616.2L308,616.2z"/>
	<path d="M144.7,622.5c0,1.3-1.3,2.1-2.1,2.5c-2.5-0.8-5.5,2.1-6.3-1.3C138.4,622.1,142.6,618.3,144.7,622.5L144.7,622.5z"/>
	<path class="st3" d="M108.6,621.7c-3.8,3.4-8.4,7.2-12.2,10.9c-2.1,0.4-3.4-1.7-5-2.9c0.4-3.4,4.2-1.7,6.3-3.4
		C101,623.8,105.2,624.2,108.6,621.7L108.6,621.7z"/>
	<path d="M334.9,625c-0.8,2.9-5.5,5-5.5,8l0.4,0.4l-10.5,11.8c-13.5,25.7-24,52.6-32.4,79.9c-2.9,15.1-5.5,29.9-5,45.9l-0.4,0.4
		l-1.3-1.3c-1.7-34.5,8.8-64.4,21.9-93c1.7-9.3,8-16.8,10.5-25.7c6.7-9.3,13-19.4,21.9-26.9L334.9,625L334.9,625z"/>
	<path class="st3" d="M297.5,628.8c-0.4,0.4-0.8,1.3-1.3,1.7h-0.4C296.2,630.1,296.2,628.8,297.5,628.8L297.5,628.8z"/>
	<path class="st2" d="M150.6,633c-2.5,9.7-5.9,18.9-5.5,29.9l-0.8,0.8c-6.3-2.5-4.2-9.3-6.3-14.3c0.4-7.6,3.8-14.7,10.5-18.5
		C150.6,630.1,150.6,631.8,150.6,633L150.6,633z"/>
	<path class="st3" d="M294.5,632.6c-2.5,9.3-9.7,16.8-13,25.7l-1.3,0.8c-0.4-2.9,2.5-5,2.5-8.4C286.1,644.4,288.6,637.2,294.5,632.6
		L294.5,632.6z"/>
	<path class="st1" d="M581.5,638.1c-2.1,2.5-4.2,7.2-8,6.7c-1.3-0.8-0.4-2.9,0.4-4.2C576.4,639.3,578.5,636.4,581.5,638.1
		L581.5,638.1z"/>
	<path class="st1" d="M954.6,648.2c0.4,1.7,1.7,3.4,0.4,5c-4.6,2.5-8.8-1.7-13-2.5c-7.6,0.4-16.8-0.4-24,2.5
		c-18.9,2.5-37,7.2-55.1,11.8c-10.5,2.1-19.4,6.3-29.9,8c-12.2,2.9-24,5.9-35.8,9.7c-6.3,0.4-10.5,5.1-16.8,5.1
		c-7.6,5-16.8,6.7-24.8,10.5c-6.7,3.4-13.9,5.9-20.6,8c-2.9-2.9-7.6-2.1-10.9-2.5c0.8-1.7,2.9-1.3,4.2-2.5c0-1.7-0.4-3.4,1.3-4.6
		c8.4,0,14.3-6.7,21.9-8.8c9.7-3.8,18.5-9.3,28.6-13c2.1-2.1,5-2.9,8-4.2c-3.8,5.9-12.2,6.7-18.1,11.4c-12.2,5-24,10.9-35.3,18.1
		c-0.4,0.8,0.4,0.8,0.4,1.3c27.8-11.8,56-22.3,84.6-32.8c13-3.8,26.1-7.6,39.5-10.1c0.4,0,1.3-0.4,1.3-0.8
		c27.8-6.3,56-14.3,86.7-13.5C950,644.4,953,645.6,954.6,648.2L954.6,648.2z"/>
	<path class="st3" d="M76.2,676.4c0.8,0.8,0,2.5,0.8,3.4c-11.4-7.6-23.6-14.7-30.7-26.1C56.4,659.9,66.5,667.9,76.2,676.4
		L76.2,676.4z"/>
	<path class="st1" d="M821.7,657c-1.3,3.4-5.9,0-6.3,3.8c-2.5,0.4-4.2,2.1-6.3,2.1c-4.6,1.7-8.8,5-13.9,5l-0.4-0.4
		C802.8,662.5,811.6,657.4,821.7,657L821.7,657z"/>
	<path class="st3" d="M93.4,668.4c9.7,7.2,16.8,17.3,24,26.5c-2.5,0-2.9-3.8-5.9-3.4c-5.1-5-12.6-7.2-16-14.3l-9.3-13v-1.7
		C88.8,664.6,92.1,665,93.4,668.4L93.4,668.4z"/>
	<path class="st1" d="M651.7,668.4c-2.1,1.7-4.2,5-7.6,5v-1.7C646.7,670.9,649.2,668.8,651.7,668.4L651.7,668.4z"/>
	<path class="st3" d="M581.9,668.8c-2.1,9.3-6.3,17.7-9.3,26.5c-3.4,3.4-7.6,6.7-11.4,9.3c-2.5-2.5-5.9,0-8.8,0
		c0.4-3,5.5-3.4,5.5-7.2c1.7-3.4,5-5.5,7.6-8c0-1.3-0.8-1.7-0.8-2.9c5.5-5.9,11.8-11.4,16.4-17.7H581.9L581.9,668.8z"/>
	<path class="st1" d="M759,673.8c-8.4,2.5-16,8.8-24.4,11.4c-4.6,1.3-0.4,3.4-1.7,6.7c-4.6,0.4-10.5,1.3-14.7,3.4
		c-1.7-0.4-2.5,0.8-3.8,1.7c3.8,1.3,2.5,8.4,8,6.3v0.8c-8.4,0.4-17.7-1.7-25.2,2.9c-4.6,0-10.1,3.8-13.9,0.4c2.1-2.1,5-3.8,8-5
		c-1.7-0.8-4.2-0.4-6.3-0.4c-9.3,0.8-18.5,5.9-27.3,2.5c-0.4-0.4-1.7-0.8-1.3-2.1c9.7-5.5,20.6-8,31.6-11.4c13.9-5,29-6.3,42.1-13.5
		c1.3-0.4,2.9-0.4,3.4,0.8c0.4,1.3-0.4,3.4,0.4,4.2c8.8-2.1,16.4-6.7,25.2-9.3V673.8L759,673.8z"/>
	<path class="st3" d="M143.1,684.8c3.8,2.9,6.7,6.7,8,10.5c-1.3,0.4-2.5,1.3-3.4,0l-16-19.8v-1.3C137.2,675.9,139.7,681,143.1,684.8
		L143.1,684.8z"/>
	<path class="st3" d="M419.5,675.5c0,0.4-0.4,0.4-0.4,0.8C418.6,675.9,419,675.1,419.5,675.5L419.5,675.5z"/>
	<path class="st3" d="M416.9,678.5c-2.1,9.3-9.3,16.8-13.9,24.8l-1.3,0.8c-1.7-0.8-1.3-3.4-0.4-4.6c4.2-7.1,8.8-14.3,15.1-21H416.9
		L416.9,678.5z"/>
	<path class="st3" d="M422,682.2c0.8,5.5-3.8,8.8-6.3,13c-3.4,4.2-5.5,10.1-10.1,13.5c-0.8,0.4-1.7-0.4-1.3-1.3
		c2.9-7.6,7.2-14.7,12.6-21c0-2.1,1.3-4.2,2.5-5.9C420.7,680.1,421.6,681.4,422,682.2L422,682.2z"/>
	<path class="st3" d="M728.3,687.7c-3.8,2.5-8.8,2.5-13,3.8c-4.6,0-8.8,2.9-13.5,2.1c8.4-3.4,17.2-4.2,26.1-6.7L728.3,687.7
		L728.3,687.7z"/>
	<path class="st3" d="M403.1,688.6c-1.3,2.9-2.9,7.2-5.9,8.4C398,693.6,400.5,690.7,403.1,688.6L403.1,688.6z"/>
	<path class="st3" d="M424.1,692.3c1.7,10.9-3.8,19.8-4.6,30.3c-0.4,1.7-2.5,0.8-2.9,2.5c0.8,1.3,0.8,3.4,0,4.6
		c-0.8,0.4-1.3,1.7-2.1,1.3c-2.5-3.4-2.1-7.6-6.3-10.5c0-1.3-1.7-2.5-0.4-4.2c0.8,0,1.7-0.8,2.1-2.1l3.4,0.4
		c-0.4-1.7-3.4-1.7-4.2-3.4c0.4-4.6,3.4-9.3,7.6-11.4c0.4-3.8,2.1-7.2,5.5-8.8C422.8,691.1,424.5,690.7,424.1,692.3L424.1,692.3z"/>
	<path class="st1" d="M907.1,696.5c-2.5,3.8-6.7,0-10.5,0.8c-27.8-0.8-56.8,1.7-85,3.8c-15.6,2.9-31.6,2.5-46.7,7.2
		c-8.4,0.4-17.3,2.9-24.8,6.3c-1.3,0-3.4,0.4-2.9-1.3c10.9-5.9,24.4-5.9,36.2-9.7c42.5-7.2,86.7-10.5,130.4-10.5
		C904.6,694.4,907.1,694.4,907.1,696.5L907.1,696.5z"/>
	<path class="st3" d="M104.8,702.4c0,0.4-1.7-0.8-2.1-1.7C103.5,701.2,104.3,701.6,104.8,702.4L104.8,702.4z"/>
	<path class="st3" d="M185.5,712.1c4.2,2.5,7.6,7.2,9.3,11.8c-1.3,0.4-2.5,0.8-3.4,0.4c-6.7-7.1-13-14.3-18.1-22.3
		C178,704.1,180.9,709.6,185.5,712.1L185.5,712.1z"/>
	<path class="st3" d="M167,710v0.8c-2.5-1.3-5.5-4.6-7.2-7.6C162.8,704.1,164.9,707.5,167,710L167,710z"/>
	<path class="st3" d="M112.8,708.3c0,0.4-1.7,0-1.7-0.8C111.5,707.9,112.3,707.5,112.8,708.3L112.8,708.3z"/>
	<path class="st3" d="M132.5,711.7v0.8c-1.3,0-2.5-1.7-2.9-2.9C130.9,710,133,709.6,132.5,711.7L132.5,711.7z"/>
	<path class="st3" d="M170.4,714.2c-0.8-1.3-2.9-0.8-2.5-2.5C168.7,712.1,170,713,170.4,714.2L170.4,714.2z"/>
	<path class="st1" d="M844.4,714.6c0,2.1-2.1,2.9-3.8,3.4c-16.4,0.8-30.7,6.3-44.6,11.8l-10.9,7.6c-0.4,0.8,0,2.1,0.8,1.7
		c9.3,0.4,17.2-4.2,25.7-5c-1.3,2.5-4.2,3.4-6.7,4.6c-8.4,3.4-18.1,8.4-27.3,5.5c-2.5-1.3-3.8-3.8-2.5-6.3
		c10.5-8.4,23.6-13,36.2-16.8l0.8-1.3l-1.3-0.8c-13-0.8-24.4,4.2-37,4.2c-5.5,2.9-11.8,2.5-17.7,4.2l-0.8-0.4c6.7-3.8,16-4.6,24-7.1
		c20.6-3.8,42.5-6.7,63.1-7.2C843.1,713,844,713.8,844.4,714.6L844.4,714.6z"/>
	<path class="st3" d="M149.4,716.3c-1.7,0.8-2.9-1.3-3.4-2.5v-1.3C147.7,713,148.9,715.1,149.4,716.3L149.4,716.3z"/>
	<polygon points="734.6,713.4 735,713.4 735,713 734.6,713 734.6,713.4 	"/>
	<path class="st3" d="M179.7,715.9C180.5,716.7,180.1,716.3,179.7,715.9L179.7,715.9L179.7,715.9z"/>
	<polygon class="st3" points="72.4,721.4 72.8,721.4 72.8,721 72.4,721 72.4,721.4 	"/>
	<path class="st3" d="M84.1,739l4.6,5.9l-0.8,0.8c-3.8-1.7-7.6-3.8-11.8-5c-3.8-3.4-5-8.8-10.5-8.8c-2.1-2.5-6.3-4.6-7.2-8
		C69,724.3,76.6,733.1,84.1,739L84.1,739z"/>
	<path class="st1" d="M369.8,726.4c-5.5,10.1-14.7,18.9-20.2,29c-9.7,15.1-18.1,30.3-28.2,45c-0.8,3.4-3.8,5.1-5.5,8
		c-2.9,5.9-8.4,11.4-8,18.1c-0.8,1.3-2.1,0.8-3.4,0.8c-4.2-4.2,0.4-10.1,2.5-14.3c9.7-17.7,22.3-34.1,30.7-52.6
		c0.8-0.4,1.3-1.3,1.3-2.1c0-0.4-0.8,0-0.8-0.4c-16,16-28.6,34.5-42.5,52.2c-2.1,1.7-4.6,2.9-7.6,2.1c-2.5-1.3-3.4-4.2-3.8-6.7
		c0.8-6.7,1.7-13.5,5-18.9c3.8-5.1,2.5-13.5,9.7-15.1c1.7,0.4,0.8,2.9,0.8,4.2c-4.2,6.3-4.2,14.3-7.2,21.5l0.4,4.6
		c5.5-1.3,8-7.2,12.2-10.1c17.7-22.3,38.3-41.7,56.4-63.9C365.2,728.9,367.3,722.6,369.8,726.4L369.8,726.4z"/>
	<path class="st3" d="M202.8,734c-3.4,0.8-6.3-2.5-7.6-5.5l0.4-1.7C199,727.3,200.7,731.5,202.8,734L202.8,734z"/>
	<path class="st1" d="M507.4,729.4c-1.3,1.7-2.9,2.1-4.6,2.9l-0.4-0.8C503.6,730.6,505.3,728.9,507.4,729.4L507.4,729.4z"/>
	<path class="st3" d="M146,733.6v0.4l-2.1-2.1C144.7,731.9,146,732.7,146,733.6L146,733.6z"/>
	<path class="st1" d="M499.8,733.6c-1.3,1.3-3.4,2.9-5.5,2.9C495.6,734.8,498.1,733.6,499.8,733.6L499.8,733.6z"/>
	<path class="st3" d="M134.2,739.9c-2.1-0.8-5-1.3-5-4.6c-0.4-0.8,0.8-0.8,1.7-0.8C131.7,736.5,134.2,737.4,134.2,739.9L134.2,739.9
		z"/>
	<path class="st3" d="M409.8,745.4c0.8,0.8-0.4,1.7-0.8,2.5c-0.4,0.4-0.4,0-0.8-0.4C408.5,746.6,408.5,745.4,409.8,745.4
		L409.8,745.4z"/>
	<path class="st3" d="M188.9,750c0,0,0,0-0.4,0.4l-0.8-0.8C188.1,749.6,188.5,749.1,188.9,750L188.9,750z"/>
	<polygon points="174.2,750.4 174.6,750.4 174.6,750.4 174.2,750.4 174.2,750.4 	"/>
	<path class="st1" d="M163.2,756.7c-4.6-0.4,0.4,5.5-4.2,5.5c-2.1,0-3.4-2.1-5-3.4c1.3-2.9,8.8,0,5.5-3.8c0-0.8,0.4-1.7,1.3-1.3
		C162,755,162.8,755.9,163.2,756.7L163.2,756.7z"/>
	<path class="st3" d="M233.1,760.1c-1.3,0-2.9-1.3-3.4-2.5l-0.8-2.1C230.6,756.7,232.7,758,233.1,760.1L233.1,760.1z"/>
	<path d="M694.2,758.8c-1.7,0.8-3.8,1.3-5.9,1.3c0.4-1.3,2.5-1.7,3.8-2.1C692.9,758.4,693.8,758,694.2,758.8L694.2,758.8z"/>
	<path class="st1" d="M715.7,760.9c-0.4,2.1-0.8,4.6-3.4,5c-7.2,2.1-15.1,1.7-22.3,4.2c-7.6,0.4-14.7,3.8-23.1,3.8
		c-8.4,2.9-16.8,4.6-25.7,6.3c-10.9,0.4-19.8,6.7-30.3,8.4c-13.5,3.8-26.1,8.8-37.9,16c0.4,0.4,0.8,1.3,1.3,1.3
		c16.4-2.5,33.2-7.2,50.1-10.1c1.7,0.4,0,2.1-0.4,2.9c-9.7,1.3-18.1,4.6-27.3,6.7c-11.8,1.3-22.3,5.5-33.7,7.6
		c-1.3-0.8-3.4-0.4-3.8-2.5c0.8-3.4,4.2-5.5,6.7-7.1c11.8-8,26.1-10.5,38.7-17.3c-2.5-2.1-4.2,0.8-6.7,0.4
		c-8.4-0.4-15.6,4.6-23.1,6.3c-3.8,2.9-10.5-0.4-13,3.8c-2.5,0.4-5.5,1.3-7.1-0.8c0-4.6-5-3.4-7.6-2.9c-4.6,2.5-10.1,2.1-15.1,3.4
		c-1.3-0.4-2.5-1.3-2.9-2.1c2.1-3.8,6.7-4.2,10.1-6.3c7.6,0,12.6-5.9,20.2-6.7c5.5-2.1,11.8-3.8,17.2-4.6c-2.1,2.1-5.5,0.8-7.6,3.4
		c-5.9,3.8-13,2.1-18.5,6.7c-4.2-1.3-6.3,1.7-8.8,3.8c3.8,1.3,8.8-0.8,13-1.3c18.9-3.8,37.4-8,56-11.4c-0.4,1.3-3.4,0.8-4.6,2.1
		l1.3,0.8c21.5-3.8,42.5-10.1,64.8-13c13.9-2.5,27.3-7.6,42.1-7.6C714.8,759.7,714.8,760.5,715.7,760.9L715.7,760.9z"/>
	<path class="st3" d="M255.4,766l-0.4,0.8c-1.3-0.4-2.5-1.3-2.9-2.5c0.4-0.8,1.7-1.3,2.9-1.7L255.4,766L255.4,766z"/>
	<path class="st3" d="M199.4,769.8c-2.5-0.8-5.9-1.3-7.6-3.8C194.4,765.6,197.7,767.2,199.4,769.8L199.4,769.8z"/>
	<path class="st3" d="M242.3,766.4l-0.4,0.4l-0.8-1.3C241.5,765.1,242.3,765.6,242.3,766.4L242.3,766.4z"/>
	<path class="st3" d="M435.5,785.7c-8.8,6.3-16.8,12.2-25.2,19.8c-10.1,2.9-18.9,8-28.6,11.4c-5,2.9-10.5,5-16,7.6l-2.1-0.4
		c1.7-8.4,10.9-13.9,16.8-19.4c3.4-0.4,7.6-5,10.5-0.4c8.8,0.4,12.6-10.1,19.4-12.6c-0.8,3.8-5.9,6.3-5.9,10.5
		c0.8,1.3,1.7,0.4,2.9,0.4c5.9-5.5,10.5-10.5,13-18.1c3.4-0.8,6.3-4.6,8.8-6.7l12.6-11.4C440.5,772.7,437.6,779.4,435.5,785.7
		L435.5,785.7z"/>
	<path class="st3" d="M385.8,770.2c0.4,5-0.4,9.7-1.7,14.3c-13.9,5.9-27.3,12.2-41.7,17.7c-0.4-0.4,0.4-1.3,0.8-2.1
		c11.8-9.3,24-18.9,35.8-27.8C381.2,771.9,385,763.4,385.8,770.2L385.8,770.2z"/>
	<path class="st3" d="M243.6,785.3c6.3,4.2,12.6,7.2,18.1,12.2c1.7,0.4,2.5,2.1,3.4,2.9c-11.4-5.9-23.1-10.9-36.2-14.3
		c-7.2-3.8-16-7.2-19.4-15.6C221.7,773.1,232.7,779.4,243.6,785.3L243.6,785.3z"/>
	<path class="st1" d="M588.2,772.7c-2.5,2.1-5.9,2.5-8.8,2.9C581.9,774.4,584.8,772.7,588.2,772.7L588.2,772.7z"/>
	<path class="st3" d="M405.2,773.1c0,1.7,0.4,3.8-1.3,4.2c-1.3,0.4-2.5-0.4-2.9-1.7C401,773.5,403.5,774,405.2,773.1L405.2,773.1z"
		/>
	<path class="st3" d="M398.9,776.9c0.4,3.4-3.4,1.7-4.6,3.4c-1.3-1.3,0-3,0-4.6C395.5,775.2,398.4,774.8,398.9,776.9L398.9,776.9z"
		/>
	<path class="st1" d="M166.6,779c-7.6-0.8-16.4-1.3-24-0.8c7.2-1.3,14.7-2.1,21.9-1.3C165.3,777.7,166.6,777.7,166.6,779L166.6,779z
		"/>
	<polygon class="st3" points="421.6,780.7 421.6,780.7 421.6,780.3 421.6,780.3 421.6,780.7 	"/>
	<path class="st1" d="M129.2,783.6c-0.8-0.8-2.9-0.8-2.5-2.1C128.7,780.7,128.3,783.2,129.2,783.6L129.2,783.6z"/>
	<path class="st3" d="M420.3,781.5c0.4,1.7-1.7,2.5-2.5,2.9h-0.8C416.5,782.4,419,782,420.3,781.5L420.3,781.5z"/>
	<path class="st1" d="M680.7,785.7c-0.4,2.9-2.9,5.1-2.9,8.4c-5.9,2.5-12.2,3.8-18.5,5.5c-0.8,0.4-1.3,1.3-1.3,2.1l2.5,1.7
		c-4.2,2.9-9.3,5.5-14.3,7.1c-2.9,0.8-5,0-7.6-1.3c-4.6-2.1,1.7-4.6,0-8c3.8-3.8,9.7-3.4,13.5-6.3c-5-0.8-10.5,1.7-15.1,0.4v-2.1
		C651.7,789.9,666,787,680.7,785.7L680.7,785.7z"/>
	<path class="st3" d="M406.4,787c-1.3,2.9-3.8,4.6-6.3,5.5c-0.8-2.9,2.9-4.2,4.6-5.9C405.2,786.6,406,786.6,406.4,787L406.4,787z"/>
	<path class="st1" d="M211.6,807.2c0.8,0.8,2.5,1.3,2.9,2.5c-5-3-11.8-1.7-16.4-5.5l-5.9-0.8l0.4-0.4
		C199.4,802.6,205.7,804.7,211.6,807.2L211.6,807.2z"/>
	<path class="st1" d="M152.7,803.8c-6.3,2.1-13,2.5-19.8,3.4c-0.8,0-2.1,0-1.7-1.3c3.8-2.5,9.3-1.7,13.9-2.5
		C147.3,803.4,150.6,803,152.7,803.8L152.7,803.8z"/>
	<path class="st1" d="M154.4,818.1c-2.9,2.5-8.8-1.3-11.4,2.9c0,2.9-2.1,4.6-4.6,5.5c-5,1.3-10.5,0.4-14.3-3
		c-0.4-1.3-1.7-2.1-0.8-3.8c2.5-1.3,5.9-2.1,8.4-4.2C139.3,814.4,147.7,812.2,154.4,818.1L154.4,818.1z"/>
	<path class="st1" d="M496,843.4c-1.3,3.4-5.5,0.8-8,2.5c-6.7,0-12.2,3.4-18.9,2.9c0.4-2.5,3.8-3.4,5.9-3.8
		c6.7-0.4,12.6-3.8,20.2-3.4L496,843.4L496,843.4z"/>
	<path class="st3" d="M379.3,362.2c0,0-22.9,26-19.4,31.3c3.5,5.3,4.8,5.3,4.8,5.3s16.3,0.4,28,7.1c1.9,1.1,3.9,2.6,3.9,2.6
		s10.5-7.5,10.1-13.6c-0.4-6.1-9.6-24.9-15.2-28.5C385.8,362.8,379.3,362.2,379.3,362.2L379.3,362.2z"/>
	<path d="M397.2,366.7c-3.4-3.8-7.2-8.8-13-6.3c0-4.2,7.2-3.8,5-8.8c-0.8-1.3-1.7-0.8-2.9-0.8c-10.1,9.7-18.5,21.5-25.2,33.2
		c-2.9,0.4-2.5-2.9-3.4-4.6c-1.7-10.9,0.4-21.5,8.4-29c4.2-3.8,9.7-0.8,14.3-0.4V349c-3.4-2.9-10.5-3.4-14.3-0.4
		c-10.1,7.2-12.6,19.8-11.8,30.7c0,5.5,5,9.3,2.5,14.7c0.4,0.4,0.8,1.3,1.7,1.3c1.7-0.4,3.8,2.1,5-0.4c-3.8-5,1-8.4,2.9-13.5
		c2.5-6.3,8-10.9,12.2-16c0,0,0,0,0,0c-0.7,3.7-1.3,11.6,5,15.4c5.9,3.5,11.4,1.4,14.2-1.1c0.9,0.1,2.3,1.6,3.8,3.7
		c2.1,5.5,4.9,8.6,4,14.8c-1.7,2.1-5.9,2.9-4.2,6.3c2.1,0.8,3.8-0.4,4.6-2.1C411.9,389.4,402.2,378.1,397.2,366.7L397.2,366.7z"/>
	<path d="M389.2,402.9c3.8,1.6,8.8,2.5,9.3,7.6c-1.7,0.8-2.5-1.3-4.2-2.1c-11.8-8.8-27.3-10.1-41.7-6.3c-0.8-0.4-1.7,0-2.1-1.3
		c0.4-4.2,5.9-2.9,9.3-3.8C369.8,397,379.9,399.9,389.2,402.9L389.2,402.9z"/>
	<path class="st2" d="M358.4,585.9c1.5,0,3.2,0,4.9,0c0.6-0.6,0.6-1.5,0.6-2.5c7.6-9.3,15.6-18.1,24-26.1l1.7-3.8
		c-0.8-0.8-2.1-2.1-3.4-1.7c-8.8,7.2-18.5,16-23.1,26.5c-0.4,1.7,0.4,4.6-1.7,5.9c-1.3,0.8-3.8,0.8-5.1-0.8c-2.1-1.3,0-3.4-0.4-5
		c-3.4-9.3,0.8-19.4,1.7-29v-2.1c-3.8,0-7.2,2.1-11.4,2.1c-5-0.4-1.3,5-2.9,8c-3.7,11.2-9.4,21.9-12.4,33.4
		c5.4-2.1,12.3-3.8,21.2-4.5C354.2,585.8,356.3,585.7,358.4,585.9L358.4,585.9z"/>
	<path class="st2" d="M491.4,423.5l-1.3,1.7c0.8,1.3,2.5,2.5,2.5,4.2c-2.1,4.2-3.4,8.4-5.5,13c-4.6,9.7-14.3,16-18.9,25.2
		c2.9,2.1,7.6,0.4,10.5,2.5c0.4,0.8,0,1.7-0.4,2.1c-7.6,1.3-15.1-1.7-21,3.8c-4.6,7.2-13.5,9.7-19.8,15.6
		c-6.7,3.8-14.3,5.5-20.2,10.9c-1.7,6.3,4.2,10.5,6.7,15.6l-0.8,1.3c-3.8-0.8-6.3-3.8-9.3-5.5c-2.5-2.1-3.8-5-4.2-8.4
		c-7.2,2.1-14.3,5-21,8.4c-0.4,0.8,0.4,2.1,1.3,2.9c2.9,9.7,14.7,5.5,21.9,8.4c0,2.5-2.9,2.9-4.2,3.8c-2.9,9.7-7.2,18.5-8.8,28.6
		c-2.1,2.9-2.1,8.4-7.2,8c-3.8-1.3-0.4-5.5-0.8-8.4c-0.8,0.4-2.1,0.4-2.9,0.8c-5.9,9.7-15.1,17.3-19.4,27.3c0.4,0.3,0.9,0.6,1.4,0.8
		c19.7,1.9,28.9,11.2,33.2,18.8c1,1.5,1.9,3.1,2.5,4.8h1.1c0.8-20.5,18.2-31.6,32.3-39c2.3-8.7,7.4-22.5,9.1-35.9
		c1.3-5.5-4.6-7.6-3.8-13.5c2.8-3.6,14-5.6,18.1-8c8.3-4.8,15.2-6.3,21.1-14.5c10.8-15.1,11.2-31,13-49.4
		C496.9,440.3,499,429.8,491.4,423.5L491.4,423.5z"/>
	<path class="st3" d="M398,529.8c0-0.4-0.1-0.7-0.4-1.1c-6.3-1.3-13-1.3-17.7-5.5c2.1,8.8,6.7,17.2,13.5,23.6l1.7-1.7
		c0.6-1.9,2-4.3,2.1-6.3C398.9,533.6,398.4,530.8,398,529.8L398,529.8z"/>
	<path class="st2" d="M248.8,472.6c-8-1.2-15.5,4.3-19,11.2c-4,7.9,3.9,14,10.9,15.7C241.8,487,247.9,473.8,248.8,472.6L248.8,472.6
		z"/>
	<path class="st2" d="M344.2,513.1c-4.2,0.4-2.9,6.3-7.2,5.9c-6.7-2.5,1.3-5.9,0.4-9.7c1.3-1.3,2.5-2.5,3.7-3.7
		c3.5-4.9,9.6-12.8,15.7-19.6c5.6-6.2,8.1-13.7,9.2-18.4c0.2-1.6,0.1-3.3-0.4-5c-4.6-6.3-11.4-14.3-20.2-14.7
		c-12.6,11.8-20.2,27.3-29.9,40.8c-2.1,3.8,3.8,4.2,2.5,8c-1.3,2.1-2.5,4.2-5,4.6c-2.1-0.8-4.6-0.4-5.9-2.5c-2.5-2.9,0.8-5.5,1.3-8
		c9.3-14.7,18.5-29,30.3-42.5c1.7-4.2,5.2-7.9,3.4-12.6c-1.9-4.3-6.6-4.9-11.4-5.9c-1.3-0.8-3.4-0.4-4.6,0.8
		c-5.5,1.7-10.5,5.5-14.3,9.7c-8.4,5.5-14.7,14.7-20.2,22.7c-2.7,4.9-4.2,6-6.3,10.1c-2.9,6.7-8,12.6-6.7,20.6
		c-2.1,2.1,0.8,6.3-2.1,8c-1.7,0.8-3.4,0.4-4.6,0c-1.3-0.4-2.9-2.1-2.9-3.8c5-24,23.6-42.9,39.5-62.3c1.3-2.1-0.8-2.9-2.1-3.8
		c-5.5,0.4-10.9,0.4-15.1,2.9c-10.9,6.3-20.2,16.8-27.8,26.9c-3.9,7.6-8.3,15.4-10.7,23.9c-3.1,9.7-5.8,32,12.4,43
		c11,6.7,23.3,10.5,31.8,12.5c1.4,1.1,3,1.1,4.6,1c2.6,0.5,4.4,0.8,5.3,0.9c0.4,2.1,1.3,4.2,2.1,6.3c-5.9,4.6-12.2-2.9-18.5,0.4
		c-2.5,5.9-5,11.8-8.4,17.3c-3.4,6.3-8,11.8-9.7,18.9c-1.3,0.4-2.9,1.7-4.6,0.8c-2.1-0.8-5-2.9-4.6-5.5c7.2-8.4,13.5-16.8,18.5-26.5
		c0.4-0.9,0.9-2,1.3-3c1-2,1.3-3.3,1.3-3.3s-21.3-7.4-32.2-17.4c-10.9-10-10.7-21.6-10.7-21.6l-1.1-0.2c-1-0.9-2.5-1.3-4-0.4
		c-0.3,0.2-0.5,0.5-0.8,0.7c-8.2,8.9-30.5,34-47.3,62.3c-3.2,5.6-6.3,11.1-8.7,17c-0.4,3.8-3.1,6.9-4,11.9c1,2.2,1.5,1.5,1.8,2.9
		c5.8,9.3,15.4,19.9,31.5,28.8c5.8,1.6,10.8,4.9,16.6,6.7c7.7-7.9,16.4-13.2,26-15.6c-1.7-6.2-5-11.2-7.1-17.4
		c-3.4-16.4-9.7-32-10.1-50.1c0.4-4.2-4.2-1.3-6.3-1.7c-3.8-5.9,3.8-8.4,6.3-12.6l1.7-0.4c2.5,1.3,2.5,4.6,3.4,6.7
		c-0.3,2.1-0.3,4.2-0.2,6.1c2.3,14.3,8.3,44.5,20.4,65.3c0.8,1,1.7,1.9,2.7,2.5c1.9,0,3.8,0.2,5.7,0.6c0.4,0.1,0.8,0.1,1.3,0.3
		c4.9,1,9.8,2.7,13.9,4.5c3.4-0.9,6.5-0.6,9.6-1c8.4-10.1,16.8-23.1,28.2-29.9l2.1-13c3.8-9.7,8.8-18.5,12.2-28.6
		c7.6-11.8,23.6-10.9,30.7-24c2.5-3.4-0.4-7.2-1.7-10.5C360.6,512.3,351.3,513.5,344.2,513.1L344.2,513.1z"/>
</g>
</svg>
