<?xml version="1.0" encoding="utf-8"?>
<!-- Generator: Adobe Illustrator 21.1.0, SVG Export Plug-In . SVG Version: 6.00 Build 0)  -->
<svg version="1.1" id="Layer_1" xmlns="http://www.w3.org/2000/svg" xmlns:xlink="http://www.w3.org/1999/xlink" x="0px" y="0px"
	 viewBox="0 0 1000 1000" style="enable-background:new 0 0 1000 1000;" xml:space="preserve">
<style type="text/css">
	.st0{fill:#009EE2;}
	.st1{fill:#FFFFFF;}
	.st2{fill:#1D1D1B;}
	.st3{fill:#E20613;}
</style>
<path class="st0" d="M364.9,390.2l13.5-5.6l15.9-3.6l3.6-9.2l-6.8-9.5l-11.5-8.4c0,0-19.1-15.9-21.1-17.1c-2-1.2-0.4-14.7-0.4-14.7
	l-3.2-35.4c0,0,6.8-22.3,19.5-23.1c12.7-0.8,28.3,0.4,28.3,0.4l18.3,17.1c0,0,2.4,5.2,13.9,0.8c11.5-4.4,22.3-11.9,33.4-11.5
	c11.1,0.4,32.2,1.6,48.9,3.6c16.7,2,32.6,24.7,49.7,25.9c17.1,1.2,6.8,21.9,4,27.5c-2.8,5.6,8.8,6.4,6.8,28.3
	c-2,21.9-6.8,51.7,6.4,52.1c13.1,0.4,61.7,16.7,64.1,31.4c2.4,14.7,3.2,24.3-2.4,29c-5.6,4.8-9.9,4.8-11.1-2
	c-1.2-6.8-19.1-26.3-31.8-21.5c-12.7,4.8-15.9,4-16.7,14.7c-0.8,10.7,4,19.1,8.8,24.7c4.8,5.6,2,10.7-4.8,15.1
	c-6.8,4.4-21.1,8.8-40.6-4.4c-19.5-13.1-31.4-27.1-41.8-27.1c-10.3,0-35-8.8-49.7-13.9c-14.7-5.2-43-19.1-51.3-24.7
	C398.3,423.7,364.9,390.2,364.9,390.2z"/>
<path class="st1" d="M432.9,329.8c2.8,3.5,17.2,25.8,42.1,28.2c24.9,2.3,39.6-0.3,50.9-9c11.3-8.6,13.6-18,13.6-24.3
	c0-6.3-12-14.6-18.6-16.6c-6.7-2-21.6-11.3-25.9-14.3c-4.3-3-6.3-5.3-16.6-6c-10.3-0.7-31.9,1.7-52.2,9.3
	C426.1,297.1,420.1,313.9,432.9,329.8z"/>
<path class="st2" d="M663.7,443c1.2,0-1.4,1.1-9.4,4.8l1.9,12.9c40.7-18.5,61.9-27.7,63.8-27.7c6.8,0,12.6,3.1,17.6,9.2
	c4.9,6.2,7.4,12,7.4,17.6c0,11.1-8.6,19.7-25.9,25.9c-22.8,8-34.5,12.3-35.1,12.9l1.9,0.9c15.4,1.3,31.1,2.2,47.1,2.8
	c28.9,3.7,43.4,11.1,43.4,22.2c0,8-3.7,14.8-11.1,20.3c-7.4,5.5-13.9,8.3-19.4,8.3c-0.6,0-8.8-1.4-24.5-4.2
	c-15.7-2.8-27.6-4.2-35.6-4.2c9.2,8,24.3,17.6,45.3,28.6c0.6,1.2,0.9,3.1,0.9,5.6c0,6.8-2.6,13.9-7.9,21.3
	c-5.2,7.4-11.6,11.1-18.9,11.1c-6.2,0-19.1-9.8-38.8-29.6c-6.8,2.5-10.6,10.2-11.6,23.1c-0.9,12.9-3.9,21.6-8.8,25.9
	c0,6.2,0.3,12.3,0.9,18.5c0,8-3.7,14-11.1,18c-7.4,4-18.2,6.6-32.3,7.9c-3.7,0.6-7.1,3.4-10.2,8.3c-4.9,6.8-10.3,14.2-16.2,22.2
	c-5.9,8-8.8,14.2-8.8,18.5c0-3.1,2.1,6.2,6.5,27.7c11.1-0.6,20,0.3,26.8,2.8c24.6,8,37,26.2,37,54.5c0,37-25,55.4-74.9,55.4
	c-1.9,0-10-0.8-24.5-2.3c-14.5-1.5-22.3-2.3-23.6-2.3c-6.2,0-21.1-4.3-44.8-12.9c-23.7-8.6-37.7-14.5-42.1-17.6
	c-11.1-10.5-28.3-25-51.8-43.4c-45.6-30.8-68.4-57.9-68.4-81.3c0-12.3,6.2-24.2,18.5-35.6c12.3-11.4,25-17.1,37.9-17.1
	c5.5,0,16,1.8,31.4,5.5c8.6,1.8,18.8,7.4,30.5,16.6c6.8-9.2,10.2-16.6,10.2-22.2c0-1.8-3.4-6.8-10.2-14.8
	c-6.8-8-11.4-13.9-13.9-17.6c-4.9-8.6-7.4-18.5-7.4-29.6c0-25.9,13.5-58.2,40.7-97c-23.4-4.3-56.7-14.2-99.8-29.6
	c-3.7-1.2-8.6-6.3-14.8-15.2c-6.2-8.9-9.2-15.3-9.2-18.9c0-3.7,3.1-11.7,9.2-24c-6.2-3.1-14.2-9.9-24-20.3c0-4.9-0.6-11.7-1.9-20.3
	c-0.6-1.2-2.9-3.7-6.9-7.4c-4-3.7-6-6.8-6-9.2v-18.5c6.8-3.1,12-4.6,15.7-4.6c1.8,0,5.1,0.8,9.7,2.3c4.6,1.5,7.9,2.3,9.7,2.3h21.3
	c-3.7-4.9-13.4-11.4-29.1-19.4c-15.7-8-24.5-14.8-26.3-20.3c-0.6-1.2-0.9-4.6-0.9-10.2c0-16.6,6.8-25,20.3-25
	c7.4,0,14.6,3.1,21.7,9.2c7.1,6.2,12.2,9.9,15.2,11.1c2.5-2.5,3.7-4.6,3.7-6.5c0-1.9-2.3-6.3-6.9-13.4c-4.6-7.1-6.9-11.9-6.9-14.3
	c0-4.9,4-9.3,12-12.9c6.2-3.1,11.4-4.6,15.7-4.6c11.7,0,20.9,5.6,27.7,16.6c1.8,4.3,3.7,8.6,5.5,12.9c2.5,6.2,5.8,9.2,10.2,9.2
	c4.3-19.7,19.4-29.6,45.3-29.6c1.8,0,6.2,0.3,12.9,0.9c6.8,0.6,11.1,0.9,12.9,0.9c11.1,0,17.9-2.5,20.3-7.4
	c-3.7-6.2-11.1-13.9-22.2-23.1c-12.9-10.5-20.3-16.3-22.2-17.6c-6.2-7.4-9.2-17.2-9.2-29.6c0-19.1,16-28.6,48.1-28.6
	c35.1,0,69.6,8.3,103.5,25c30.2,15.4,55.8,34.8,76.7,58.2c8,9.2,15.6,24.3,22.6,45.3c7.1,21,10.6,39.4,10.6,55.5
	c0,25.3-4.9,54.8-14.8,88.7c-1.8,8-11.4,20.3-28.6,37L663.7,443z M347.4,336.9c-3.7,0-8.5-0.5-14.3-1.4c-5.9-0.9-9.4-1.4-10.6-1.4
	c-8.6,0-15.4,1.5-20.3,4.6v7.4c1.8,3.7,5.2,7.7,10.2,12C326.4,340.9,338.1,333.8,347.4,336.9z M353.9,321.1
	c-6.8-20.9-8.3-33.9-4.6-38.8c-4.9-3.7-9.9-7.1-14.8-10.2c-6.8-5.5-12.3-8.3-16.6-8.3c-9.2,0-13.9,5.5-13.9,16.6
	c0-4.3,1.2-0.6,3.7,11.1C318.1,299,333.5,308.8,353.9,321.1z M394.5,378.5v-8.3c-11.7-9.2-18.5-13.9-20.3-13.9
	c-9.2,0-20,3.7-32.3,11.1c-1.2-1.2-1.9-2.2-1.9-2.8c12.3-7.4,23.7-11.7,34.2-12.9c-5.5-4.3-12-6.5-19.4-6.5c-7.4,0-15.7,2.5-25,7.4
	c-11.1,6.2-16.6,12.9-16.6,20.3c0,4.9,2.9,10.5,8.8,16.6c5.8,6.2,11.2,9.2,16.2,9.2l31.4-14.8C375.7,382.8,384,380.9,394.5,378.5z
	 M498,735.2c-1.9-4.3-3.4-15.1-4.6-32.3c-1.9-3.1-6.6-5.4-14.3-6.9c-7.7-1.5-11.9-4.5-12.5-8.8c2.5-0.6,8.6-0.6,18.5,0
	c-16-5.5-31.1-12.6-45.3-21.3V689c0,1.9,1.5,4.6,4.6,8.3c3.1,3.7,4.6,6.2,4.6,7.4l-6.5,5.5l-8.3-12c-1.8-1.8-4.2-5.7-6.9-11.6
	c-2.8-5.9-10.8-11.2-24-16.2c-13.3-4.9-24.5-7.4-33.7-7.4c-11.1,0-21.3,4-30.5,12c-11.1,9.9-16.6,21.6-16.6,35.1
	c0,9.9,5.4,21.4,16.2,34.7c10.8,13.3,22.6,21.4,35.6,24.5c-1.2-12.9,3.5-26,14.3-39.3c10.8-13.2,23.6-19.9,38.4-19.9
	C449.7,710.2,473.4,718.5,498,735.2z M735.5,457.9c0-2.4-2-6-6-10.6c-4-4.6-8.2-7.2-12.5-7.9l-78.6,35.1v10.2c1.2,0,2.8,0.6,4.6,1.8
	l-3.7,2.8H633c-1.2-1.2-2.2-2.5-2.8-3.7c1.2-3.1,1.9-6.5,1.9-10.2c0-7.4-2.6-14-7.9-19.9c-5.2-5.9-11.6-8.8-18.9-8.8
	c-3.1,0-6.6,2-10.6,6c-4,4-6,8.2-6,12.5c0,6.8,2.6,11.9,7.9,15.2c5.2,3.4,7.9,7.2,7.9,11.6c0,3.1-3.1,6.2-9.2,9.3
	c-8,3.7-12.3,5.9-12.9,6.5c-1.2,6.2,5.8,14.2,21.3,24c2.5-8.6,14.2-12.9,35.1-12.9c9.2,0,16,1.8,20.3,5.5c-9.9,0-19.7,0-29.6,0
	c-14.8,1.2-22.2,7.4-22.2,18.5c0,1.8,1.8,5.5,5.5,11.1c3.7,5.5,5.5,9.2,5.5,11.1c0,3.7-0.6,4.9-1.9,3.7c-2.5-1.8-6.2-4.9-11.1-9.2
	c-1.2,3.7-3.4,8.9-6.5,15.7h-6.5c-1.2-2.5-1.5-4.3-0.9-5.5c5.5-9.8,8.3-15.7,8.3-17.6v-14.8c-21.6-6.1-30.5-16.6-26.8-31.4
	c-9.2-3.1-21.6-8-37-14.8c-4.9-4.9-12.3-10.5-22.2-16.6c-9.9-1.8-22.8-4.6-38.8-8.3c-3.7-1.2-28-12.9-73-35.1
	c-7.4,7.4-11.4,11.1-12,11.1c-0.6-9.8,0.3-16.3,2.8-19.4c-3.1-3.1-8.2-7.9-15.2-14.3c-7.1-6.5-12.2-10.9-15.2-13.4
	c-10.5,7.4-19.1,11.1-25.9,11.1c-3.1,9.9-4.6,17.6-4.6,23.1c0,15.4,17.6,29,52.7,40.7c28.3,9.9,49.9,14.8,64.7,14.8
	c2.5,0,5.8-1.8,10.2-5.5c4.3-3.7,7.1-5.5,8.3-5.5c3.7,0,4.9,0.6,3.7,1.8c0,1.2-0.3,2.2-0.9,2.8c-9.9,5.5-21.3,20.3-34.2,44.4
	c-12.9,24-19.4,41.3-19.4,51.8c0,6.8,10.5,16,31.4,27.7c18.5,9.9,29.6,15.1,33.3,15.7c24.6,1.9,39.4,2.8,44.4,2.8
	c31.4,0,47.1-6.8,47.1-20.3c0-5.6-5.9-14.2-17.6-25.9c-4.3,0.6-9.9,0.3-16.6-0.9c3.1-5.5,6.2-8.3,9.2-8.3c-4.3-2.4-6.8-5.8-7.4-10.2
	c0-3.7,1.2-5.9,3.7-6.5c12.3,15.4,24.6,30.8,37,46.2c18.5,21.6,34.5,32.4,48.1,32.4c15.4,0,22.8-7.7,22.2-23.1v-14.8
	c-8-1.2-13.3-4.6-15.7-10.2c2.5,0,5.4,0.5,8.8,1.4c3.4,0.9,5.7,1.4,6.9,1.4c2.5,0,4.9-1.5,7.4-4.6c2.5-3.1,4.6-4.6,6.5-4.6
	c1.2,0,6.9,4.9,17.1,14.8c10.2,9.9,17.7,14.8,22.6,14.8c12.9,0,19.4-6.5,19.4-19.4c0-4.9-2.5-8.6-7.4-11.1
	c-14.2-6.2-26.8-13.6-37.9-22.2c6.2-16,4.3-32.6-5.5-49.9c-5.5-9.8-8.3-14.5-8.3-13.9c0-3.1,0.6-4,1.9-2.8c0.6,0.6,2.5,2.3,5.5,5.1
	c3.1,2.8,5.5,4.2,7.4,4.2c6.8,0,21.3-5.5,43.4-16.6C731.5,471.2,735.5,465.3,735.5,457.9z M391.7,254.6
	c-6.8-14.8-14.5-22.2-23.1-22.2c-8,0-14.5,2.2-19.4,6.5c0,6.8,3.4,15.1,10.2,25C375.4,257.7,386.2,254.6,391.7,254.6z M704.1,313.8
	c0-17.2-2.8-35.1-8.3-53.6c-4.3-15.4-11.1-28.3-20.3-38.8C626.2,167.1,566.7,140,497.1,140c-14.2,0-22.5,0.9-25,2.8
	c-8,6.8-12,13.6-12,20.3c0,11.7,10.2,25.6,30.5,41.6c14.2,10.5,26.3,17.4,36.5,20.8c10.2,3.4,24.8,7.2,43.9,11.6
	c3.1,1.9,4.6,4.3,4.6,7.4c-3.1,2.5-5.9,3.7-8.3,3.7c-3.7,0-19.7-6.2-48.1-18.5c-1.2,1.8-3.1,4.3-5.5,7.4c-2.5,3.1-3.7,4.9-3.7,5.5
	c14.8,5.5,29.6,11.1,44.4,16.6c17.2,6.2,27.1,13.3,29.6,21.3c-0.6,0.6-1.5,1.2-2.8,1.8c-1.2,0.6-2.2,1.2-2.8,1.8
	c-50.5-30.2-88.7-45.3-114.6-45.3c-29.6,0-44.4,10.2-44.4,30.5c0,4.9,2.5,8.9,7.4,12c4.9-1.9,12-4,21.3-6.5v-13.9
	c1.8,0,3.1-0.3,3.7-0.9c0.6-0.6,1.8-0.9,3.7-0.9c2.5,0,9.2,1.7,20.3,5.1c11.1,3.4,17.9,6,20.3,7.8c-3.1,2.5-4.6,3.4-4.6,2.8h-32.3
	c-3.7,0-14.5,4.6-32.3,13.9c0,1.2,0,3.4,0,6.5c11.7-6.1,27.4-9.2,47.1-9.2c8.6,0,14.2,0.3,16.6,0.9c3.7,3.1,8.8,6.6,15.2,10.6
	c6.5,4,13.4,7.6,20.8,10.6c11.1,6.2,16.6,12.3,16.6,18.5c0,6.8-3.9,14.2-11.6,22.2c-7.7,8-14.9,11.4-21.7,10.2
	c3.1,6.2,4,9.9,2.8,11.1c-8.6-6.1-20.7-9.2-36-9.2c-40.1,0-60.1,10.5-60.1,31.4c0,3.1,7.7,13.9,23.1,32.4l-3.7,3.7
	c-17.3-10.5-25.9-22.8-25.9-37c0-11.7,7.7-21.3,23.1-28.6c12.3-5.5,25.3-8.3,38.8-8.3c2.5,0,6.6,0.3,12.5,0.9
	c5.8,0.6,9.7,0.9,11.6,0.9c6.8,0,15.2-3.1,25.4-9.2c10.2-6.1,15.2-12.9,15.2-20.3c0-6.1-5.2-11.8-15.7-17.1
	c-10.5-5.2-18.8-7.9-25-7.9c-1.2,0-6.5,2.2-15.7,6.5c-9.2,4.3-16,6.5-20.3,6.5c12.3-7.4,24.3-12.9,36-16.6
	c-10.5-6.2-18.5-9.2-24-9.2c-10.5,0-25,3.1-43.4,9.2v8.3c6.2-3.1,11.1-4.6,14.8-4.6c1.9,0.6,5.2,3.4,10.2,8.3
	c-4.3,6.2-10.2,10.5-17.6,12.9v3.7c1.2,1.9,0.6,4.3-1.9,7.4c-5.5-3.7-10.5-13.2-14.8-28.6c0-4.9-1.2-12-3.7-21.3
	c-3.1-6.1-5.9-9.5-8.3-10.2c-11.1-5.5-17.9-8.3-20.3-8.3c-6.8,0-13.3,2.9-19.4,8.8c-6.2,5.8-9.2,12.8-9.2,20.8
	c0,15.4,9.2,30.2,27.7,44.4c5.5,2.5,12,6.8,19.4,12.9l-3.7,3.7c-2.5-1.2-16-8.9-40.7-23.1c1.2,2.5,8.6,8.9,22.2,19.4
	c11.7,9.2,17.6,16.9,17.6,23.1c0,4.3-1.8,8.3-5.5,12l-12-1.9v12.9c-3.1-3.7-4.6-7.1-4.6-10.2c-1.8,0-4,0.9-6.5,2.8
	c11.1,14.2,20,24,26.8,29.6c9.2,7.4,26.5,16.5,51.8,27.3c25.3,10.8,43.1,16.2,53.6,16.2c1.2,0,3.1-0.8,5.5-2.3
	c2.5-1.5,4.6-2.3,6.5-2.3c0,7.4,8.6,16,25.9,25.9c17.2,9.9,29.3,14.8,36,14.8c4.9,0,9.8-4,14.8-12c-4.9-5.5-8.6-8.3-11.1-8.3
	c-1.8,0-4.8,0.8-8.8,2.3c-4,1.5-6.9,2.3-8.8,2.3c-4.3,0-10.2-2.3-17.6-6.9c-7.4-4.6-12.3-9.4-14.8-14.3l3.7-3.7
	c1.9,1.2,6.2,4.2,12.9,8.8c6.8,4.6,11.1,6.9,12.9,6.9c11.7,0,17.6-6.1,17.6-18.5c0-6.1-4.6-9.2-13.9-9.2c-11.1,0-18.5-1.5-22.2-4.6
	c1.8-3.7,7.1-5.5,15.7-5.5c1.8,0,6.6,1.1,14.3,3.2c7.7,2.2,12.5,3.2,14.3,3.2c1.8,0,5.1-0.8,9.7-2.3c4.6-1.5,7.9-2.3,9.7-2.3
	c6.8,0,14.2,3.7,22.2,11.1c3.1,4.9,7.4,10.5,12.9,16.6c3.7-7.4,5.5-12.6,5.5-15.7c0-9.8-9.2-19.1-27.7-27.7
	c-15.4-7.4-27.7-11.1-37-11.1c-1.8,0-4.3,0.5-7.4,1.4c-3.1,0.9-5.5,1.4-7.4,1.4c-3.1,0-6.2-2.8-9.2-8.3c8.6-6.8,12.9-17.6,12.9-32.4
	c0-19.1,1.2-31.4,3.7-37c4.9,9.2,7.7,20.7,8.3,34.2c0,10.5,0.3,21,0.9,31.4c33.3,5.5,56.1,16,68.4,31.4
	c25.9-22.8,41.3-56.7,46.2-101.7c0.6-2.5,1.5-5.8,2.8-10.2C703.5,318.7,704.1,315.6,704.1,313.8z M624.6,800.8
	c0-9.2-3.5-18.3-10.6-27.3c-7.1-8.9-15.6-13.4-25.4-13.4c-1.8,0-4,0.5-6.5,1.4c-2.5,0.9-4,1.4-4.6,1.4c2.5,8,2.5,13.9,0,17.6
	c-0.6,0-2.2-1.2-4.6-3.7c-0.6-5.5-3.1-14.9-7.4-28.2c-4.3-13.2-6.5-20.5-6.5-21.7c0-6.1,1.8-11.7,5.5-16.6
	c5.5-8.6,16-22.5,31.4-41.6c12.9-16.6,19.4-25.6,19.4-26.8v-9.2c-10.5-5.5-22.8-14.2-37-25.9c-10.5,13.6-29.3,20.3-56.4,20.3
	c-37.6,0-73-13.5-106.3-40.7c0,3.7,0.9,7.4,2.8,11.1c4.9,19.7,13.5,34.5,25.9,44.4c25.3,20.3,47.1,30.5,65.6,30.5
	c3.7,0,6.5-0.9,8.3-2.8c0-8,0.9-13.2,2.8-15.7c4.3,3.7,6.5,8.3,6.5,13.9c0,1.8-3.1,7.1-9.2,15.7c-8,11.1-12.9,18.2-14.8,21.3
	c-0.6,0.6-0.9,4.6-0.9,12c0,10.5,4.6,24.7,13.9,42.5c-3.7,3.7-6.5,5.5-8.3,5.5c-0.6,0-1.7-1.1-3.2-3.2c-1.5-2.1-2.6-5.4-3.2-9.7
	C489.4,737,472.2,728.1,450,725c-4.3-0.6-9.2-0.9-14.8-0.9c-33.3,0-49.9,13.6-49.9,40.7c0,21.6,20.9,42.5,62.8,62.9
	c36.3,17.3,67.2,25.9,92.4,25.9c0.6,0,2.5,0.6,5.5,1.8c3.1,1.2,5.5,1.9,7.4,1.9c17.9,0,33.6-4.3,47.1-12.9
	C616.6,834.4,624.6,819.9,624.6,800.8z M485.1,333.2c-1.8,2.5-4.3,5.5-7.4,9.2c-7.4,4.9-13.3,7.4-17.6,7.4c1.9,0-2.8-2.4-13.9-7.4
	v-8.3c9.9-6.2,17.9-9.2,24-9.2C477.1,324.9,482,327.6,485.1,333.2z M541.5,283.3l-5.5,5.5c-2.5-1.2-5.9-4.9-10.2-11.1
	c-11.1-0.6-21-0.9-29.6-0.9c11.7-4.3,19.1-6.5,22.2-6.5c3.7,0,10.5,1.8,20.3,5.5c0,0.6,0.5,1.8,1.4,3.7
	C541,281.4,541.5,282.7,541.5,283.3z M582.1,311.9c0,4.9-5.5,12-16.6,21.3c0-0.6,1.2-3.4,3.7-8.3c2.5-4.9,3.7-8.3,3.7-10.2
	c0-4.9-2.3-8.5-6.9-10.6c-4.6-2.1-9.1-4.1-13.4-6H572C578.7,300.5,582.1,305.1,582.1,311.9z M638.5,645.5c0-2.4-0.9-4.6-2.8-6.5
	h-12.9c-1.2,4.9-5.9,13.6-13.9,25.9h12c3.1,0.6,6.8-1.8,11.1-7.4C636.3,652,638.5,648,638.5,645.5z M764.2,536.5v-12.9
	c-10.5-9.2-19.1-13.9-25.9-13.9h-49.9c-1.9,2.5-1.9,12,0,28.6c37.6,4.9,55.4,7.4,53.6,7.4C748.2,545.7,755.6,542.7,764.2,536.5z"/>
<path class="st3" d="M394.5,378.5v-8.3c-11.7-9.2-18.5-13.9-20.3-13.9c-9.2,0-20,3.7-32.3,11.1c-1.2-1.2-1.9-2.2-1.9-2.8
	c12.3-7.4,23.7-11.7,34.2-12.9c-5.5-4.3-12-6.5-19.4-6.5c-7.4,0-15.7,2.5-25,7.4c-11.1,6.2-16.6,12.9-16.6,20.3
	c0,4.9,2.9,10.5,8.8,16.6c5.8,6.2,11.2,9.2,16.2,9.2l31.4-14.8C375.7,382.8,384,380.9,394.5,378.5z"/>
<path class="st0" d="M347.4,336.9c-3.7,0-8.5-0.5-14.3-1.4c-5.9-0.9-9.4-1.4-10.6-1.4c-8.6,0-15.4,1.5-20.3,4.6v7.4
	c1.8,3.7,5.2,7.7,10.2,12C326.4,340.9,338.1,333.8,347.4,336.9z"/>
<path class="st0" d="M353.9,321.1c-6.8-20.9-8.3-33.9-4.6-38.8c-4.9-3.7-9.9-7.1-14.8-10.2c-6.8-5.5-12.3-8.3-16.6-8.3
	c-9.2,0-13.9,5.5-13.9,16.6c0-4.3,1.2-0.6,3.7,11.1C318.1,299,333.5,308.8,353.9,321.1z"/>
<path class="st0" d="M735.5,457.9c0-2.4-2-6-6-10.6c-4-4.6-8.2-7.2-12.5-7.9l-78.6,35.1v10.2c1.2,0,2.8,0.6,4.6,1.8l-3.7,2.8H633
	c-1.2-1.2-2.2-2.5-2.8-3.7c1.2-3.1,1.9-6.5,1.9-10.2c0-7.4-2.6-14-7.9-19.9c-5.2-5.9-11.6-8.8-18.9-8.8c-3.1,0-6.6,2-10.6,6
	c-4,4-6,8.2-6,12.5c0,6.8,2.6,11.9,7.9,15.2c5.2,3.4,7.9,7.2,7.9,11.6c0,3.1-3.1,6.2-9.2,9.3c-8,3.7-12.3,5.9-12.9,6.5
	c-1.2,6.2,5.8,14.2,21.3,24c2.5-8.6,14.2-12.9,35.1-12.9c9.2,0,16,1.8,20.3,5.5c-9.9,0-19.7,0-29.6,0c-14.8,1.2-22.2,7.4-22.2,18.5
	c0,1.8,1.8,5.5,5.5,11.1c3.7,5.5,5.5,9.2,5.5,11.1c0,3.7-0.6,4.9-1.9,3.7c-2.5-1.8-6.2-4.9-11.1-9.2c-1.2,3.7-3.4,8.9-6.5,15.7h-6.5
	c-1.2-2.5-1.5-4.3-0.9-5.5c5.5-9.8,8.3-15.7,8.3-17.6v-14.8c-21.6-6.1-30.5-16.6-26.8-31.4c-9.2-3.1-21.6-8-37-14.8
	c-4.9-4.9-12.3-10.5-22.2-16.6c-9.9-1.8-22.8-4.6-38.8-8.3c-3.7-1.2-28-12.9-73-35.1c-7.4,7.4-11.4,11.1-12,11.1
	c-0.6-9.8,0.3-16.3,2.8-19.4c-3.1-3.1-8.2-7.9-15.2-14.3c-7.1-6.5-12.2-10.9-15.2-13.4c-10.5,7.4-19.1,11.1-25.9,11.1
	c-3.1,9.9-4.6,17.6-4.6,23.1c0,15.4,17.6,29,52.7,40.7c28.3,9.9,49.9,14.8,64.7,14.8c2.5,0,5.8-1.8,10.2-5.5
	c4.3-3.7,7.1-5.5,8.3-5.5c3.7,0,4.9,0.6,3.7,1.8c0,1.2-0.3,2.2-0.9,2.8c-9.9,5.5-21.3,20.3-34.2,44.4c-12.9,24-19.4,41.3-19.4,51.8
	c0,6.8,10.5,16,31.4,27.7c18.5,9.9,29.6,15.1,33.3,15.7c24.6,1.9,39.4,2.8,44.4,2.8c31.4,0,47.1-6.8,47.1-20.3
	c0-5.6-5.9-14.2-17.6-25.9c-4.3,0.6-9.9,0.3-16.6-0.9c3.1-5.5,6.2-8.3,9.2-8.3c-4.3-2.4-6.8-5.8-7.4-10.2c0-3.7,1.2-5.9,3.7-6.5
	c12.3,15.4,24.6,30.8,37,46.2c18.5,21.6,34.5,32.4,48.1,32.4c15.4,0,22.8-7.7,22.2-23.1v-14.8c-8-1.2-13.3-4.6-15.7-10.2
	c2.5,0,5.4,0.5,8.8,1.4c3.4,0.9,5.7,1.4,6.9,1.4c2.5,0,4.9-1.5,7.4-4.6c2.5-3.1,4.6-4.6,6.5-4.6c1.2,0,6.9,4.9,17.1,14.8
	c10.2,9.9,17.7,14.8,22.6,14.8c12.9,0,19.4-6.5,19.4-19.4c0-4.9-2.5-8.6-7.4-11.1c-14.2-6.2-26.8-13.6-37.9-22.2
	c6.2-16,4.3-32.6-5.5-49.9c-5.5-9.8-8.3-14.5-8.3-13.9c0-3.1,0.6-4,1.9-2.8c0.6,0.6,2.5,2.3,5.5,5.1c3.1,2.8,5.5,4.2,7.4,4.2
	c6.8,0,21.3-5.5,43.4-16.6C731.5,471.2,735.5,465.3,735.5,457.9z"/>
<path class="st0" d="M391.7,254.6c-6.8-14.8-14.5-22.2-23.1-22.2c-8,0-14.5,2.2-19.4,6.5c0,6.8,3.4,15.1,10.2,25
	C375.4,257.7,386.2,254.6,391.7,254.6z"/>
<path class="st0" d="M638.5,645.5c0-2.4-0.9-4.6-2.8-6.5h-12.9c-1.2,4.9-5.9,13.6-13.9,25.9h12c3.1,0.6,6.8-1.8,11.1-7.4
	C636.3,652,638.5,648,638.5,645.5z"/>
<path class="st0" d="M764.2,536.5v-12.9c-10.5-9.2-19.1-13.9-25.9-13.9h-49.9c-1.9,2.5-1.9,12,0,28.6c37.6,4.9,55.4,7.4,53.6,7.4
	C748.2,545.7,755.6,542.7,764.2,536.5z"/>
</svg>
