<?xml version="1.0" encoding="utf-8"?>
<!-- Generator: Adobe Illustrator 21.1.0, SVG Export Plug-In . SVG Version: 6.00 Build 0)  -->
<svg version="1.1" id="Layer_1" xmlns="http://www.w3.org/2000/svg" xmlns:xlink="http://www.w3.org/1999/xlink" x="0px" y="0px"
	 viewBox="0 0 1000 1000" style="enable-background:new 0 0 1000 1000;" xml:space="preserve">
<style type="text/css">
	.st0{stroke:#000000;stroke-width:0.216;stroke-linecap:round;stroke-linejoin:round;stroke-miterlimit:22.9256;}
	.st1{fill:none;stroke:#000000;stroke-width:0.216;stroke-linecap:round;stroke-linejoin:round;stroke-miterlimit:22.9256;}
	.st2{fill:#4D6FB6;stroke:#000000;stroke-width:0.216;stroke-linecap:round;stroke-linejoin:round;stroke-miterlimit:22.9256;}
	.st3{fill:#86C286;stroke:#000000;stroke-width:0.216;stroke-linecap:round;stroke-linejoin:round;stroke-miterlimit:22.9256;}
	.st4{fill:#957230;stroke:#000000;stroke-width:0.216;stroke-linecap:round;stroke-linejoin:round;stroke-miterlimit:22.9256;}
	.st5{fill:#FFFFFF;stroke:#000000;stroke-width:0.216;stroke-linecap:round;stroke-linejoin:round;stroke-miterlimit:22.9256;}
	.st6{fill:#F8D37A;stroke:#000000;stroke-width:0.216;stroke-linecap:round;stroke-linejoin:round;stroke-miterlimit:22.9256;}
	.st7{fill:#F2562D;stroke:#000000;stroke-width:0.216;stroke-linecap:round;stroke-linejoin:round;stroke-miterlimit:22.9256;}
	.st8{fill:#A71007;stroke:#000000;stroke-width:0.216;stroke-linecap:round;stroke-linejoin:round;stroke-miterlimit:22.9256;}
	.st9{fill:#61B3FF;stroke:#000000;stroke-width:0.216;stroke-linecap:round;stroke-linejoin:round;stroke-miterlimit:22.9256;}
	.st10{fill:#FF99CC;stroke:#000000;stroke-width:0.216;stroke-linecap:round;stroke-linejoin:round;stroke-miterlimit:22.9256;}
</style>
<g>
	<path class="st0" d="M387.2,758.8c-43.5-2.4-79.2-13.7-104.3-32.8c-24.7-18.8-39.1-45.2-40.2-78c-1.2-33.5,0-61.5,4.8-91.4
		c4.7-29.4,13-60.7,25.8-100.6c-6.1,0.5-12.3,0.6-18.5,0.2c-15.4,7.5-27.6,8.6-37.3,4.6c-9.8-4-17-13.1-22.2-25.9l0,0l-2.7,0.9
		c-25.3,8.3-50.6,16.6-77,27.5c-2.5,1.5-5.6,2.3-9.1,2.2c-3.9-0.1-7.5-1.9-10.4-4.7c-2.1-2-3.8-4.6-5-7.5c-1.2-2.9-1.8-6.1-1.7-9.5
		c0.2-5.6,2.3-11.5,7.3-16.7c-0.1-0.2-0.2-0.5-0.3-0.8c-0.4-0.9-0.7-1.9-0.9-2.9c-5.3,1.7-23.8,9.2-28.2,8.8
		c-2.2-0.2-4.5-1.5-6.3-3.6c-3.2-3.8-4.1-9-3.8-13.8c-5.2,1.7-10.3,3.5-15.6,5.3c-0.8,0.6-1.7,1-2.6,1.4c-4,1.7-8.8,1.5-13.1-0.4
		c-4.1-1.8-7.8-5.1-10.2-9.6c-1.2-2.4-2.1-5-2.8-7.7c-1.3-5.6-1.4-11.6-0.1-16.7c1.3-5.3,4-9.7,8.2-11.8c2.6-0.9,7.1-1.7,8.5-2
		c9.2-1.7,18.4-3.4,27.6-5.2c-3-1-5.7-3.2-7.8-6c-2.6-3.5-4.1-7.9-3.9-12.3c0.1-1.9,0.5-3.9,1-5.9c1.4-4.8,4-9.5,7.4-12.9
		c3.4-3.5,7.6-5.7,12-5.5c0,0,0.1,0,0.1,0l110.2-20.7c-1.2-4.5-1.9-8.8-2.1-12.9c-0.8-14.7,4.3-26.8,11.7-35.8
		c7.5-9,17.4-15,26.3-17.5c2.6-0.7,5.1-1.1,7.4-1.3l0,0c1.8-0.2,3.8-0.4,5.8-0.6c17.9-1.7,35.8-3.5,54.7-1.3
		c-0.1-0.2-0.2-0.3-0.3-0.5v0l0,0c-3.6-7.4-6.2-17.8-7.8-28.7c-1.8-12.4-2.4-25.5-1.7-35.7c0.1-1.8,0.3-3.6,0.5-5.4
		c2.8-27.8,12.4-53.2,23.9-71.6c11.6-18.5,25.4-29.8,36.2-29.1c0.1,0,0.3,0,0.5,0l0.1,0c17.7,0.2,33.5,3.6,47.2,10.2
		c13.3,6.4,24.6,15.8,33.9,28.3c5.7-5.6,11.3-7.1,17.1-5.5c5.8,1.6,11.7,6.5,17.9,13.4c9.6-8,20-13.3,30.8-15.8
		c11.1-2.5,22.6-2.2,34.1,1.1c68.7-70.7,128.2-73,155.9-74c1.8-0.1,3.5-0.1,5.1-0.2c1.6-0.1,3.2-0.1,4.8-0.2
		C716.9,21,753.1,35.1,779.8,54c26.8,19,44.3,43.1,45.3,62.2l0,0c0,0.3,0,0.7,0,1.1c0,1.8-0.1,3.6-0.4,5.4
		c-1.9,9.9-9.5,19.2-23.8,26.1c-14.2,6.8-35,11.4-63.6,11.9c-13.5,0.2-28.8-0.4-45.8-2.1c1.8,2,4,3.8,6.5,5.2
		c3.4,2,7.3,3.4,11.1,4.1c0.3,0,0.5,0.2,0.6,0.4c16.3,0.4,31.4,3,44.7,7.4c15.3,5.1,28.1,12.4,37.2,21.3
		c9.7,9.4,15.4,20.6,15.6,32.5c0.1,5.1-0.3,9.6-1.2,13.7l16.3,0.4c0.3,0,0.6,0.2,0.8,0.4v0c6,8.7,11.4,17.4,16,25.9
		c0.1,0,0.1,0,0.2,0l48.4-2l48.4-2c0.1,0,0.2,0,0.2,0l0,0c9.8,2.1,15,6.4,16.6,12.3c1.5,5.8-0.5,13-5.1,21.4
		c-0.2,0.3-0.5,0.5-0.9,0.5l-34.3,1.1c2.6,3,3.9,6,3.7,9.1c-0.2,3-1.8,6-5,9l62.4-2.2c0.2,0,0.4,0.1,0.6,0.2h0
		c7.5,5.3,11.6,11.2,12.9,17.6c1.2,6.4-0.5,13.2-4.9,20.4c-0.2,0.3-0.5,0.5-0.8,0.5v0l-64.2,0.2c0.8,1.5,1.2,3.6,1.3,6
		c0,2.7-0.4,5.8-1.5,8.8c-1,3-2.6,5.8-4.7,8c-2.3,2.3-5.2,3.7-8.7,3.8l-19.5,0.2c1.2,4.8,0.9,9.1-0.8,12.8c-1.8,4-5.2,7.3-9.9,10
		c-0.2,0.1-0.3,0.1-0.5,0.1v0h-37.8c-10.5,14.9-24.5,28.1-41.6,37.5c-0.2,0.1-0.4,0.1-0.5,0.1l-40.2,0.5
		c-18.4,13-39.5,22.4-61.5,28.5c1.1,5.8,2.2,11.4,3.1,17c16.8,17.6,27.5,26.3,40.7,29.9c13.3,3.6,29.3,2.1,56.8-0.9
		c-0.5-2.7-0.8-5.4-0.9-8.2c-0.7-16.4,4.9-33.1,14.1-46.7c9.3-13.7,22.2-24.4,36-28.9c3.9-1.3,8-2,12-2.2c1.6-0.1,3.1,0,4.6,0.1
		c8.9,0.6,16.9,4.2,23.5,9.6c1.3-5.7,2.6-11.5,3.9-17.4c1.4-6.3,2.7-12.5,4-18.6c0.1-0.3,0.2-0.5,0.5-0.6
		c16.3-10,31.4-14.8,45.5-15.8c14.1-1,27.3,1.9,39.8,7.2c0.5,0.2,0.7,0.7,0.6,1.2l0,0c-3.9,12.8-9.6,25.5-15.1,37.6
		c-2.2,4.9-4.4,9.8-6.4,14.4c5.9,3.5,10.5,8.5,13.9,13.9c4,6.5,6.2,13.6,6.4,19.7c0.4,11.8-6.3,22.5-15.6,30.7
		c-0.6,0.5-1.2,1.1-1.9,1.6c5,2.7,8.7,5.9,11.2,9.4c2.7,3.9,4,8.3,4,12.7c0,8.6-6.7,16.6-17.6,22.5c2.9,2.4,5,5,6.4,7.8
		c1.6,3.1,2.3,6.5,2.3,10c0,8.8-7,16.9-18.3,22.9c-10.9,5.7-25.8,9.4-42.1,9.4l-0.6,0c-9.9,29.3-23.3,58.7-36.8,88.5
		c-3.4,7.4-6.7,14.8-9.9,21.9c1.9,1.7,3.7,3.5,5.4,5.5c10.9,12.2,18.1,28.1,18,43.5c0,0.4,0,0.8,0,1.2c-1.4,46.5-27,91.1-59.8,126.5
		c-42.5,45.8-97.2,76.2-127.7,75.4c-19.3-0.5-37.6-7.7-50-19.7c-5.1-4.9-9.2-10.6-12-17c-2.8-6.4-4.3-13.4-4.1-21
		c0.4-16,8.3-34.4,27-53.8c0-0.1,0.1-0.1,0.2-0.1c7.3-19.7,10.8-36.5,11.1-50.4c0.3-12.3-2-22.3-6.4-30c-4.3-7.6-10.7-13-18.7-16
		c-4.7-1.8-10-2.7-15.8-2.9c-17.6,7.7-39.1,12.1-65,12.1c-4.5,0-9.2-0.2-13.9-0.4c2,6.1,3.7,12.3,5.2,18.3c4,16.9,5.5,32.8,1.3,43.7
		c-4,10.6-13.1,18.4-27.8,24.4c11.2,8.1,26.3,13.1,40.7,17.9c26.8,8.9,51.4,17.1,46.6,42.8c-3.9,21-16.9,35.2-34.4,44.2
		c-21.4,11.1-49.6,14.5-75.7,13.2c-3.9-0.2-7.7-0.4-11.4-0.7c-53.7-4.4-88.2-20.3-109-40.4c-20.9-20.2-28-44.7-26.9-66.3
		c0-0.9,0.1-1.8,0.2-2.7l0,0c0.3-3.6,0.9-7,1.8-10.1c5.1-17.8,19.4-28.8,36.2-35.1c16.7-6.3,35.8-7.8,50.8-6.6l0,0
		c6.7,0.6,12.2,1.6,18.6,3.6c8.1-2.4,14.2-6.3,14.4-13.5c0.3-16.8-9.2-31.6-18.8-46.5l-0.7-1.1l-1,0.4c-0.1,0.1-0.2,0.1-0.3,0.1
		l-0.6,0.2l-0.1,0c-0.1,0-0.1,0-0.2,0c-10.3,3-20.8,4.3-31.5,4.2c-11-0.1-22.2-1.7-33.5-4.4C387.5,759.2,387.3,759,387.2,758.8
		L387.2,758.8z M799.9,707.6L799.9,707.6c10.5-26.5,20.9-53.2,30.6-80c3.9-10.7,7.6-21.4,11.2-32c-10.3,1.4-20.8-0.3-29.2-3.9
		c-4.6-2-8.8-4.6-12.6-7.6c-9,1.6-17.3,3.3-25,4.9c-24.3,5-42.4,8.7-55.8,5.1c-4.9-1.3-8.9-3.8-12.6-7.3c-3.1-3.1-5.9-7-8.7-11.7
		c-1.9,10-5,18.7-9.6,26c-0.1,0.1-0.2,0.2-0.3,0.3c2.1,14.6,3.4,29.3,3.3,44.1c0,3.6-0.1,7.3-0.4,10.8c-1.1,16.8-4.7,33.4-11.2,48.5
		c13.9,5.3,23.9,13.5,30.4,24.3c6.4,10.6,9.5,23.6,10,38.9c8.4-10.7,17.5-20.8,27.2-29.7C763.4,723.6,781.2,712.3,799.9,707.6
		L799.9,707.6z"/>
	<path class="st1" d="M752.1,402.7L752.1,402.7 M823.2,116.4L823.2,116.4"/>
	<path class="st2" d="M274,454.1c0.2-0.3,0.7-0.5,1.1-0.3c0.1,0,0.2,0.1,0.3,0.2c11-1.2,21.8-3.9,32.5-7.8
		c17.3-6.4,34.3-15.9,51.2-27.7c0.1-0.2,0.3-0.3,0.4-0.4c8.4-3.3,14.2-10.5,18-19.2c5.4-12.1,7.2-27,7.3-37.9
		c0.2-18.2-2.5-35-9.3-52.5c-6.7-17.4-17.4-35.5-33-56.2c-2.7-0.1-5-0.2-6.7-0.3c-7.4-0.7-16.8-2.5-26.6-5.1
		c-9.6-2.5-19.6-5.8-28.7-9.4c-18.9-2.2-36.9-0.4-54.8,1.3c-1.9,0.2-3.7,0.4-5.8,0.6l0,0v0c-0.6,0-1.3,0.1-1.9,0.2
		c16.9,4.9,29.3,18.7,38.3,35.9c14,26.9,19.8,62.4,21.5,85.1c1.3,17.7,0.3,38.8-4,57.4c-3.4,14.8-8.8,28-16.7,36.7
		C262.6,454.8,268.3,454.6,274,454.1L274,454.1z"/>
	<path class="st3" d="M275.4,455.9c-13,40.2-21.3,71.6-26,101.1c-4.8,29.7-6,57.7-4.8,91c1.2,32.2,15.2,58,39.5,76.5
		c24.7,18.8,60,30,102.8,32.4c-2.7-58.8,2.6-112.8,13.8-163.3c11.3-50.6,28.6-97.7,50-142.5l-0.6-0.3c-14.8-7.6-26.2-19.3-32.9-36
		c-9.6,3.9-19.5,6.4-29.4,7.4c-9.3,0.9-18.7,0.3-27.7-2c-16.9,11.8-34.1,21.5-51.6,27.9C297.6,452,286.6,454.7,275.4,455.9
		L275.4,455.9z"/>
	<path class="st4" d="M915.1,356.4c-0.1-0.1-0.1-0.1-0.1-0.2l-58.3,0.2c-1.5,7.9-3.9,16-7.2,24l32.4,0.8c0.1-0.1,0.3-0.1,0.5-0.1
		l21.4-0.2c3,0,5.4-1.3,7.3-3.2c1.9-1.9,3.3-4.5,4.2-7.2c0.9-2.8,1.4-5.7,1.4-8.2C916.6,359.6,916.1,357.4,915.1,356.4L915.1,356.4z
		"/>
	<path class="st4" d="M908.2,319.5C908.2,319.5,908.2,319.5,908.2,319.5c4.1-3.2,6.1-6.2,6.2-9.2c0.2-2.9-1.4-5.9-4.3-8.9l-57.2,1.9
		c1.8,6.1,3.2,12.1,4.1,18L908.2,319.5L908.2,319.5z"/>
	<path class="st4" d="M852.3,301.4l94.1-3.1c4.2-7.7,6-14.3,4.6-19.4c-1.4-5.1-6.1-8.9-15-10.8l-48.3,2l-47.7,2
		c3.9,7.5,7.3,15,10,22.4C850.8,296.7,851.6,299.1,852.3,301.4L852.3,301.4z"/>
	<path class="st2" d="M855.3,323.1c-0.2-0.2-0.4-0.4-0.4-0.8c0-0.2,0.1-0.5,0.2-0.6c-1.3-8.8-3.6-17.6-6.9-26.6
		c-5.9-16.1-14.8-32.6-26.4-49.4l-16.2-0.4c-1.8,7.2-4.9,12.9-8.7,17.5c-6,7.3-13.4,11.7-19.4,14.9c3.5,5.7,6.8,11.6,10.1,17.5
		c8.7,2.4,17,7.6,23.7,14.7c8.9,9.6,14.8,22.8,14.4,37.6v0l0,0.7l0,0h0c-0.1,1.9-0.3,3.8-0.5,5.7c-2.2,14.4-10.5,27.5-23.2,36.8
		c-1.2,0.8-2.4,1.7-3.6,2.4c0,0.2,0,0.3-0.1,0.5c-0.4,0.8-0.8,1.5-1.2,2.2c-10.5,18.7-24.8,34-41.4,46.3l37.3-0.4
		c18.6-10.3,33.5-25.3,44.2-41.9c11.7-18.3,18.3-38.6,19.1-57C856.5,336.2,856.2,329.7,855.3,323.1L855.3,323.1z"/>
	<path class="st4" d="M856.9,354.5l124-0.4c3.9-6.6,5.5-12.8,4.4-18.6c-1.1-5.8-5-11.2-11.8-16.2l-116.2,4
		c0.9,6.6,1.2,13.1,0.9,19.5C858,346.6,857.6,350.5,856.9,354.5L856.9,354.5z"/>
	<path class="st4" d="M836.6,403.9h36.2c4.3-2.5,7.3-5.4,8.9-9c1.5-3.4,1.8-7.3,0.6-11.8l-33.7-0.9c-2.7,6.3-6,12.5-9.9,18.4
		C838.1,401.8,837.4,402.8,836.6,403.9L836.6,403.9z"/>
	<path class="st5" d="M803.6,245.1c-0.3-0.2-0.4-0.5-0.4-0.8c0-0.5,0.4-0.9,0.8-0.9c0.9-4,1.3-8.6,1.2-13.7
		c-0.2-11.4-5.6-22.1-15-31.1c-8.9-8.7-21.5-15.9-36.5-20.9c-15.1-5-32.6-7.7-51.5-7.4c-45.6,0.8-99.1,19.5-145.2,67
		c-0.4,0.4-1,0.4-1.4,0c-0.4-0.4-0.4-1,0-1.4c46.5-47.9,100.6-66.7,146.6-67.5l0.8,0c-2.1-0.7-4.1-1.7-6-2.8
		c-3.3-1.9-6.2-4.4-8.2-7.2c-14.6-1.6-30.5-3.9-47.8-7.2c-0.5-0.1-0.9-0.6-0.8-1.1c0.1-0.5,0.6-0.9,1.1-0.8
		c38.7,7.3,70.4,10,95.9,9.6c28.2-0.5,48.8-5,62.8-11.7c13.8-6.6,21-15.4,22.8-24.7c0.3-1.6,0.4-3.3,0.4-5c0-0.3,0-0.6,0-1v0
		c-0.9-18.6-18.1-42.1-44.5-60.8C752.2,36.9,716.5,23,678.4,23.7c-1.5,0-3.1,0.1-4.7,0.2c-1.5,0.1-3.2,0.1-5.1,0.2
		c-35.5,1.3-123.6,4.6-216.3,154.3c-13.9,22.5-23.6,48.9-28.6,79c-4.7,28.5-5.3,60.2-1.3,95l0.2-0.3c7.3-10,17.2-16.9,27.3-18.8
		c1.5-0.3,3-0.5,4.5-0.5c24.9-1,41.1,12.9,52.3,27.8c24.4-53.6,60.5-88.5,104.4-107.1c47.4-20,103.8-20.8,164.2-5.3
		c0.5,0.1,0.8,0.7,0.7,1.2c-0.1,0.5-0.7,0.8-1.2,0.7c-6.7-1.7-13.3-3.2-19.9-4.6c6.3,7.4,11.9,15.3,17,23.3c1.5,2.4,3,4.8,4.5,7.2
		c5.8-3.1,13.1-7.4,18.9-14.5C798.8,257.2,801.8,251.9,803.6,245.1L803.6,245.1z"/>
	<path class="st4" d="M155.2,333.1c-3.8,0.2-7.4,2.3-10.4,5.5c-2.7,2.8-5,6.5-6.5,10.5c-0.1,0-0.6,0.2-0.8,0.2
		c-18.4,5.1-37,9.5-55.7,13.6c-3.8,0.8-7.7,1.6-11.5,2.4l0.2-0.2c9.4-6.6,9.7-17.4,6.3-27.7c-1.6-4.9-4.1-9-6.7-10.8l157.7-29.6
		c2,5,3.9,10.3,5.4,15.5c1,3.2,1.9,6.5,2.7,9.7c-0.1,0-0.1,0-0.2,0l-70.8,9.9C161.6,332.6,158.7,332.9,155.2,333.1L155.2,333.1z"/>
	<path class="st6" d="M156.3,335.1c-3.6-0.2-7.2,1.8-10.2,4.9c-3.1,3.2-5.5,7.6-6.9,12.2c-0.7,2.2-1.1,4.5-1.2,6.7
		c-0.2,4.2,1.2,8.4,3.5,11.7c2.3,3.3,5.5,5.7,8.8,6.1c2.9,0.4,6.5-0.9,9.6-3.2c8.8-6.5,8.7-17.2,5.7-26.9c-1.5-4.7-3.6-8.6-5.7-10.3
		C159.1,335.5,157.5,335.1,156.3,335.1L156.3,335.1z"/>
	<path class="st4" d="M161.5,334.8l2-0.4l72.6-10.2c0.1,0,0.2-0.1,0.3-0.1c3,12.4,5,24.6,6.2,35.1c-15.4,4.3-29,8.1-44.1,12.3
		c-3.3,0.7-20.2,1.7-23.4,2.1c-5,0.6-10,1.3-15.1,2.1c0.3-0.2,0.7-0.5,1-0.7c9.5-7,9.6-18.4,6.3-29.1
		C166,341.3,163.8,337,161.5,334.8L161.5,334.8z"/>
	<path class="st4" d="M150.1,378.6c1.8,0.3,6-0.2,7.6-0.5c6-1,11.9-1.8,17.7-2.5c4.3-0.5,8.6-0.9,12.8-1.2
		c-48.1,13.1-95.9,26.4-143.1,42.5c0.9-1.1,1.6-2.3,2.3-3.7c4.9-10.9-2.4-23.3-9.5-31c-2.8-3-5.7-5.4-8.4-6.8
		c17.7-3.2,35.2-6.6,52.7-10.4c18.5-4,36.9-8.5,55.3-13.5c-0.7,2.4-1.2,5.1-1.4,7.4c-0.2,4.6,1.3,9.3,3.9,12.9
		C142.6,375.4,146.3,378.1,150.1,378.6L150.1,378.6z"/>
	<path class="st2" d="M197.1,434.4c11.1-3.6,22.3-7.3,33.6-11.3c-3.7,6.3-7.9,10.5-12.2,11c-0.5,0.1-0.9,0.6-0.8,1.1
		c0.1,0.5,0.6,0.9,1.1,0.8c7.2-0.9,14.1-10.7,19-23.2c5.4-13.8,8.7-31,7.8-43.5c-1.2-15.5-4.2-36.8-10.4-57.3
		c-4.6-15.2-11-29.9-19.6-41.6c-0.3-0.4-0.9-0.5-1.4-0.2c-0.4,0.3-0.5,0.9-0.2,1.4c5.2,6.9,9.5,15,13.1,23.7l-48.9,9.2
		c-1.2-4.4-1.9-8.7-2.1-12.7c-0.7-14.2,4.1-25.8,11.3-34.5c7.2-8.7,16.7-14.5,25.3-16.9l0.5-0.1c0,0,0.1,0,0.1,0
		c18.3,3.6,31.6,17.8,41,35.9c13.9,26.7,19.6,61.8,21.2,84.3c1.3,17.5,0.3,38.5-4,56.8c-3.5,15.2-9.2,28.7-17.5,37.1
		c-14.9,7.3-26.7,8.4-35.9,4.7C209,455.4,202.2,446.7,197.1,434.4L197.1,434.4z"/>
	<path class="st6" d="M24.6,376c-0.9,0.2-1.7,0.5-2.5,0.9c-3.7,1.9-6,5.8-7.2,10.6c-1.2,4.9-1.1,10.5,0.2,15.8
		c0.6,2.6,1.5,5,2.6,7.2c2.1,4.1,5.5,7.1,9.2,8.8c3.8,1.7,8,1.9,11.5,0.4c3.1-1.3,5.7-3.9,7.3-7.4c4.6-10.1-2.6-21.8-9.1-28.9
		C32.6,379.1,28.7,376,24.6,376L24.6,376z"/>
	<path class="st4" d="M59.3,414.1c-0.4,4.6,0.2,9.6,3.3,13.2c1.5,1.7,3.2,2.8,5,2.9c2,0.2,23.9-7.5,27.6-8.8c-0.3-1.9-0.5-4-0.4-6.1
		c0.1-4.6,1.2-9.4,3.2-13.6C85.2,405.7,72.3,409.8,59.3,414.1L59.3,414.1z"/>
	<path class="st4" d="M232.1,420.6c1.4-2.6,2.7-5.4,3.9-8.5c2-4.9,3.6-10.3,4.9-15.8c-13.8,4.1-27.9,7.9-42,11.6
		c-26.1,6.9-52.1,13.8-77,23.5c2.5,3.4,3.7,8.2,3.6,13.1c-0.1,3.2-0.7,6.4-1.9,9.3c-0.8,2-1.9,3.9-3.3,5.5
		c24.5-9.8,48.1-17.6,71.6-25.3c13.2-4.3,26.5-8.7,39.8-13.4C231.9,420.6,232,420.6,232.1,420.6L232.1,420.6z"/>
	<path class="st4" d="M241.4,394.2c1.9-8.8,2.8-17.5,2.3-24.7c-0.2-2.6-0.4-5.4-0.8-8.3c-16.9,4.8-34,9.4-51.1,14.1
		c-22.4,6.1-44.9,12.2-67.5,18.8c3.3,5.8,4.8,12.2,4.6,18.1c-0.1,4.4-1.1,8.6-2.9,12.1c-0.9,1.7-1.9,3.3-3.2,4.7
		c24.5-9.5,50.1-16.2,75.6-23c14.3-3.8,28.6-7.5,42.7-11.8C241.2,394.2,241.3,394.2,241.4,394.2L241.4,394.2z"/>
	<path class="st6" d="M111.3,463L111.3,463c1.2-0.5,2.4-1,3.5-1.5c0.8-0.5,1.5-1,2.2-1.6c2.1-1.8,3.7-4.3,4.8-6.9
		c1.1-2.7,1.7-5.7,1.8-8.6c0.1-4.7-1.1-9.2-3.5-12.3c-5.7,2.3-11.2,5-17.4,1.6c-2-1.1-3.6-2.8-4.9-4.9c-4.3,4.7-6.2,10-6.4,15
		c-0.1,3.1,0.5,6.1,1.6,8.7c1.1,2.7,2.6,5,4.5,6.9c2.6,2.5,5.7,4.1,9.1,4.2C108.3,463.6,109.9,463.4,111.3,463L111.3,463z"/>
	<path class="st6" d="M124.2,423.4c1.7-3.3,2.6-7.2,2.7-11.3c0.2-5.7-1.3-11.8-4.6-17.4l0-0.1c-7.3,2.1-14.5,4.2-21.8,6.4l0,0
		c-2.4,4.3-3.7,9.5-3.8,14.4c-0.1,3.7,0.4,7.2,1.6,10.1c1.2,2.9,2.9,5.2,5.3,6.5C111.3,436.3,120.7,430.4,124.2,423.4L124.2,423.4z"
		/>
	<path class="st6" d="M65.9,327.4c-3.8-0.2-7.5,1.8-10.5,4.9c-3.1,3.2-5.6,7.6-6.9,12.1c-0.5,1.8-0.9,3.7-0.9,5.5
		c-0.2,3.9,1.2,7.9,3.5,11c2.3,3.1,5.5,5.3,8.8,5.7c2.9,0.3,6.5-0.8,9.6-3c8.7-6.1,8.7-16.1,5.6-25.5
		C73.5,333.5,71.2,327.7,65.9,327.4L65.9,327.4z"/>
	<path class="st7" d="M343,250.3c0.1,0,0.2,0,0.2,0c6.1,0.1,14.1,0,23-0.3c0.3-0.2,0.8-0.3,1.1,0c2.2-0.1,4.4-0.2,6.7-0.3
		c9.5-0.4,19.5-1,28.7-1.7c7.6-14.1,13.4-28,17.3-41.6c4-13.8,6.2-27.2,6.5-40.3c0.1-4.5,0.1-8.9-0.1-13.3L376,140.5
		c0.5,10.9,0.2,21.5-0.4,30.7c-0.9,14.4-6.1,30.4-13.3,44.5c-7.5,14.6-17,27.3-26,34.2C338,250.2,340.3,250.3,343,250.3L343,250.3z"
		/>
	<path class="st6" d="M345,252.3c15.2,20.4,25.7,38.2,32.3,55.5c6.8,17.7,9.7,34.8,9.4,53.2c-0.2,11.2-1.9,26.3-7.5,38.7
		c-3.7,8.2-8.9,15.1-16.5,19c8.1,1.8,16.5,2.2,24.8,1.4l0.9-0.1c6.8-8.2,11.6-18.2,14.8-28.7c4.2-13.5,5.8-27.7,6.1-39.9
		c0.5-17.6-3.4-35.3-10.6-51.9c-7.6-17.5-18.8-33.8-32.3-47.7C358.4,252.3,351,252.4,345,252.3L345,252.3z"/>
	<path class="st2" d="M369.1,251.9c13.1,13.7,24,29.8,31.5,47c7.3,16.9,11.3,34.8,10.8,52.8c-0.4,12.3-2,26.7-6.2,40.4
		c-3.1,10-7.5,19.6-13.9,27.8c8.5-1.1,16.9-3.5,25.2-6.8c-1.7-4.5-3-9.3-4.1-14.6c-0.6-3-0.9-6.1-1.1-9c-0.5-13.1,3.2-25,9.4-34.6
		c-4.3-35.8-3.8-68.4,1-97.7c0.5-3,1-6,1.6-8.9c-12.8,1.4-31.9,2.8-49.3,3.5C372.4,251.8,370.8,251.8,369.1,251.9L369.1,251.9z"/>
	<path class="st6" d="M423.7,246.2c0.1,0,0.1,0,0.2,0c5.3-25.3,14.1-48,26.1-67.6c-0.1-0.1-0.1-0.3-0.1-0.4
		c1.1-12.9,1.7-25.5,1.3-36.8c-0.4-11.2-1.8-21.2-4.6-28.8c-6.1-6.9-11.8-11.6-17.3-13.2c-5.2-1.5-10.3,0-15.5,5.3
		c6.2,9.6,10.1,19.5,12.3,29.7c2.2,10.4,2.8,21,2.5,31.9c-0.4,13.2-2.5,26.9-6.6,40.8c-3.9,13.4-9.5,27-16.9,40.9
		C411.9,247.4,418.4,246.8,423.7,246.2L423.7,246.2z"/>
	<path class="st8" d="M298,241.5c3.9,1.2,7.8,2.4,11.7,3.4c4.1,1.1,8.2,2.1,12.1,2.8c-0.2-0.1-0.4-0.2-0.6-0.3
		c-3.3-1.9-5.7-4.6-6.5-7.9c-0.9,0.2-1.8,0.3-2.7,0.3v0c-0.1,0-0.1,0-0.2,0c-0.9-0.1-1.7-0.4-2.6-0.8
		C305.4,240.8,301.6,241.5,298,241.5L298,241.5z"/>
	<path class="st7" d="M411.5,104.7c-9.2-12.5-20.4-22-33.7-28.4c-10.7-5.2-22.6-8.3-35.8-9.5c15.4,5.9,24.2,20.6,29,38.4
		c1.9,6.9,3.1,14.3,3.9,21.7l50,13.1c-0.3-1.8-0.6-3.6-1-5.4c-2.2-10.2-6.1-20.1-12.4-29.7C411.6,104.9,411.6,104.8,411.5,104.7
		L411.5,104.7z"/>
	<path class="st7" d="M476.7,138.9c11.7-15.8,23.2-29.4,34.4-41.1c-10.9-2.9-21.7-3.2-32.1-0.8c-10.6,2.5-20.9,7.7-30.3,15.6
		c2.7,7.7,4.1,17.6,4.5,28.6l0,1.2L476.7,138.9L476.7,138.9z"/>
	<path class="st8" d="M474.9,141.2l-21.7,3.1c0.1,3.2,0.1,6.5,0,9.9l13.7-1.8l0.1,0C469.6,148.6,472.3,144.8,474.9,141.2
		L474.9,141.2z"/>
	<path class="st8" d="M426.3,150.8c-0.2-2.9-0.5-5.8-0.9-8.7L375.3,129c0.3,3.2,0.5,6.4,0.7,9.5L426.3,150.8L426.3,150.8z"/>
	<path class="st7" d="M453.1,156.1c-0.2,6.1-0.5,12.5-1.1,18.9c4.5-7.2,9-14,13.4-20.5L453.1,156.1L453.1,156.1z"/>
	<path class="st8" d="M316.6,239.1c0.6,2.7,2.7,5,5.6,6.7c3.4,2,7.9,3.2,11.9,3.5c9-6.5,18.9-19.4,26.5-34.3
		c7.1-13.9,12.3-29.6,13.1-43.8c0.8-12.6,1-27.9-0.5-42.9c-5.2-3.3-9.5-11-14-19.1c-7-12.7-14.7-26.6-27.1-25.5
		c-15.7,1.3-26,15.1-32.9,32c-7,17.1-10.4,37.3-12.4,50.9c-1.8,12.7,1.2,30.4,6.5,45.1c5,14,12,25.2,18.7,26.3
		c8.9-0.5,17.1-8.6,24-19.8c9.2-15,15.9-35.5,18.9-51.2c1.1-6,1.6-12.2,1.4-18.2c-0.3-11.6-2.8-22.7-6.6-31.2
		c-3.8-8.3-8.9-14.1-14.6-15.1c-0.7-0.1-1.5-0.2-2.2-0.2c-6.8,0.2-13,6.5-18.1,15.3c-6.9,11.7-11.8,27.7-13.7,39.7
		c-0.5,3-0.8,6.4-0.9,10.1c-0.3,10.2,0.9,22.1,3.3,31.7c2.4,9.3,5.9,16.3,10.5,17c0.2,0,0.4,0.1,0.6,0.1c5.1,0.1,10.2-5.6,14.5-14.1
		c2.5-5,4.8-10.9,6.7-17.1l0,0c-7.9,0.2-11.2,6.3-13.5,10.7c-1.5,2.9-2.7,5.1-4.8,4.9c-0.2,0-0.3,0-0.5-0.1
		c-3.5-0.6-5.5-5.7-6.5-12.3c-1-6.3-1.1-14.1-0.8-20.7c0.2-3.7,0.5-6.9,1-9.4c1.6-8.7,4.6-21,8.7-29.6c3.1-6.4,6.8-11,11.2-11v0
		c0.4,0,0.8,0,1.2,0.1c3.8,0.6,6.9,4.2,9,9.7c2,5.3,3.2,12.6,3.2,20.9c0,4.9-0.4,10.3-1.3,15.8c-2.2,13.5-6.4,28.3-11.9,38.9
		c-4.7,9.1-10.3,15.3-16.3,15.1c-0.3,0-0.6,0-0.9-0.1c-5.4-0.9-9.5-8.4-12.1-18.4c-2.5-9.7-3.7-21.9-3.4-32.2
		c0.1-3.7,0.4-7.2,0.9-10.3c1.9-12.2,6.9-28.5,13.9-40.4c5.5-9.3,12.2-16,19.8-16.2c0.9,0,1.8,0.1,2.6,0.2c6.4,1.2,12,7.4,16.1,16.3
		c4,8.7,6.5,20.1,6.8,31.9c0.2,6.2-0.3,12.5-1.4,18.6c-3,15.8-9.8,36.6-19.1,51.8C331.6,229,324.5,236.6,316.6,239.1L316.6,239.1z"
		/>
	<path class="st8" d="M373,125.7c-0.8-6.9-2-13.6-3.7-20c-5.6-20.7-16.8-37.3-38-39.4c-0.1,0-0.2,0-0.4,0
		c-10.1-0.7-23.2,10.3-34.5,28.2c-11.4,18.1-20.9,43.3-23.6,70.7c-0.2,1.7-0.3,3.5-0.4,5.3c-0.7,10.1-0.1,23.1,1.6,35.3
		c1.6,10.8,4.1,21,7.6,28.2l0,0c0.8,1.6,5.8,4.5,12.4,5.4c4,0.5,8.6,0.3,13.2-1.5c-5.8-4.2-11.5-13.9-15.6-25.6
		c-5.4-14.9-8.4-33-6.6-46c2-13.7,5.4-34,12.5-51.3c7.1-17.5,17.9-31.9,34.5-33.2c13.6-1.1,21.6,13.3,28.9,26.5
		C364.9,115.4,368.7,122.2,373,125.7L373,125.7z"/>
	<path class="st8" d="M336.4,183.1c1.9-6.4,3.4-13.1,4.4-19.5c0.9-5.4,1.3-10.6,1.3-15.5c0-8.1-1.1-15.1-3.1-20.2
		c-1.9-4.9-4.5-8-7.5-8.5c-0.3,0-0.6-0.1-0.9-0.1v0c-3.5,0-6.7,4.1-9.5,9.9c-4.1,8.5-7,20.6-8.6,29.1c-0.4,2.4-0.8,5.6-1,9.2
		c-0.3,6.5-0.2,14.1,0.8,20.3c0.9,5.8,2.5,10.2,5,10.7c0.1,0,0.2,0,0.3,0c0.8,0,1.8-1.7,3-3.9c2.5-4.7,6.1-11.4,15.2-11.7
		C336,182.9,336.2,182.9,336.4,183.1L336.4,183.1z"/>
	<path class="st9" d="M842.4,593.6c4.9-14.7,9.5-29.3,13.8-43.9c-10.1,4.7-19.5,7.3-27.9,7.2c-9.5-0.1-17.7-3.7-24.3-11.5
		c-0.3-0.4-0.3-1,0.1-1.4c0.4-0.3,1-0.3,1.4,0.1c6.2,7.3,13.9,10.7,22.8,10.8c8.9,0.1,19-3,30-8.5c-0.1-1.7,0.1-3.5,0.6-5.4
		c0.9-3.7,2.9-7.8,6.1-12.3c-2.6,0.8-5.1,1.3-7.4,1.3c-5.3,0-10.3-1.9-14.4-6.1c-3.7-3.8-6.8-9.5-8.8-17.3c-2.2-8.6,0-17.3,2.2-26.1
		c1.1-4.3,2.2-8.6,2.7-12.8c0.1-0.5,0.6-0.9,1.1-0.8c0.5,0.1,0.9,0.6,0.8,1.1c-0.6,4.4-1.7,8.7-2.7,13c-2.1,8.5-4.3,17-2.2,25.1
		c1.9,7.5,4.8,12.9,8.3,16.4c3.8,3.8,8.3,5.6,13,5.6c8.3-0.1,18.7-6,26.9-15.5c7.2-8.3,12.7-19.4,13.5-31.4c0.1-1.3,0.1-2.6,0-3.9
		c-0.4-9.7-4.8-20-11.9-28.1c-7.1-8.1-16.9-13.9-28.3-14.7c-1.4-0.1-2.9-0.1-4.4-0.1c-3.9,0.2-7.7,0.9-11.5,2.1
		c-13.4,4.3-26,14.7-35,28.1c-9,13.4-14.5,29.6-13.8,45.6c0.2,5.1,1.1,10.2,2.7,15.1c0.2,0.5-0.1,1.1-0.6,1.2
		c-0.5,0.2-1.1-0.1-1.2-0.6c-0.6-1.8-1.1-3.7-1.5-5.6l0,0c-27.8,3-44,4.5-57.6,0.9c-13.1-3.5-23.7-11.9-39.7-28.4
		c3.2,19.7,5.1,38,5.1,54.3c0,9-0.6,17.4-1.9,25.1c3.1,5.4,6.1,9.9,9.5,13.2c3.4,3.3,7.1,5.6,11.7,6.8c13,3.4,30.9-0.2,54.9-5.2
		c7.2-1.5,15-3.1,23.5-4.6c-3.2-2.9-6-6-8.4-9.4c-0.3-0.4-0.2-1,0.3-1.3c0.4-0.3,1-0.2,1.3,0.3c5.1,7.5,12.8,14,22.1,17.9
		c8.3,3.6,18.8,5.1,29,3.6C842.3,593.6,842.3,593.6,842.4,593.6L842.4,593.6z"/>
	<path class="st4" d="M858.5,548.7c-7.6,26.4-16.5,53-26.2,79.6c-9.5,26.3-19.7,52.7-30.1,78.8c5.5-1.2,11.1-1.8,16.7-1.8
		c0.4,0,0.7,0,1.1,0c12.3,0.4,24.2,5.9,34.1,14.4c3.3-7.4,6.5-14.4,9.7-21.3c13.4-29.5,26.7-58.7,36.6-87.7
		c-9.3-0.4-16.7-2.7-21.9-6.2c-3.7-2.5-6.3-5.7-7.5-9.3c-1.3-3.6-1.2-7.6,0.3-11.7c1.9-5.2,6.1-10.6,13-15.7c-3-0.7-5.8-1.5-8.4-2.4
		c-6-2.2-11-5.2-14.1-9.1l0-0.1C860,553.9,858.9,551.4,858.5,548.7L858.5,548.7z"/>
	<path class="st4" d="M952.2,449.7c2-4.8,4.3-9.7,6.5-14.8c5.3-11.7,10.9-24.1,14.7-36.5c-12-4.9-24.6-7.6-38.1-6.7
		c-13.7,0.9-28.3,5.6-44.3,15.3c-1.3,6.2-2.6,12.2-3.9,18.2c-1.3,6-2.7,12.1-4.1,18.4c1.6,1.4,3,2.9,4.4,4.4
		c6,6.8,10.2,15.2,11.8,23.6c5.9-4.2,13.4-6.2,22.3-6.3c6.9-0.1,14.6,1,23,3c0-0.2,0-0.3,0.1-0.5l7.3-17.8
		C952,449.9,952.1,449.8,952.2,449.7L952.2,449.7z"/>
	<path class="st5" d="M621.9,760.4c0.1-0.1,0.3-0.2,0.5-0.2c13.5-6,24.7-13.9,33.8-23.3c20.9-21.5,30.9-50.6,32.8-80.6
		c0.2-3.6,0.4-7.2,0.4-10.7c0.1-38.3-8.7-75.9-17.5-113.5c-4.1-17.6-8.3-35.3-11.5-53.1c-5.9,0.8-11.8,1.5-17.7,1.9
		c6.7,18.5,14.1,40.2,16.1,57.5c2.1,18.1-1.5,31.5-17.5,32c-3,0.1-5.8-0.1-8.5-0.6c-1.6-0.3-3.2-0.8-4.7-1.3
		c2.9,4.5,4.3,9.9,4.2,15.6c-0.1,6.3-2.3,12.6-6,17.5c-3.3,4.6-7.9,8.1-13.1,9.5c0.1,1.2,0,2.4-0.1,3.6c-0.8,10-6.6,19.5-16,26.7
		c-9.3,7.2-22.1,12.2-36.8,13.3c-3.8,0.3-7.7,0.3-11.8,0c-13.6,18.2-32.8,29.5-54.3,36.6c-18.1,6.1-37.9,9.2-57.2,11
		c0.1,2.5,0.3,4.9,0.5,7.5c0.2,2.8,0.6,5.6,1,8.4c2,14.5,10.4,27.6,18.7,40.7c9.7,15.2,19.4,30.3,19.1,47.6
		c-0.3,14.2-19.2,16.8-35.5,19c-1.9,0.3-3.7,0.5-5.7,0.8c-0.5,0.1-1-0.3-1.1-0.8c-0.1-0.5,0.3-1,0.8-1.1c1.7-0.3,3.7-0.5,5.7-0.8
		c3.5-0.5,16.7-2.5,15.8-2.7c-4.1-1.2-9.3-2.1-15.1-2.6l0,0c-14.8-1.2-33.6,0.3-50,6.4c-16.3,6.1-30.1,16.8-35,33.9
		c-0.9,3-1.5,6.3-1.8,9.8l0,0c-0.1,0.9-0.1,1.8-0.2,2.6c-1.1,21.1,5.9,45,26.3,64.8c20.5,19.8,54.6,35.5,107.9,39.9
		c3.7,0.3,7.5,0.6,11.3,0.7c25.8,1.3,53.6-2,74.7-12.9c16.9-8.8,29.6-22.5,33.4-42.9c4.5-24.1-19.3-32-45.3-40.6
		c-15-5-30.7-10.2-42.2-18.9c-15.5,5.9-37,9.8-64.9,12.8c-0.5,0.1-1-0.3-1.1-0.9c-0.1-0.5,0.3-1,0.9-1.1c28-3,49.4-6.9,64.8-12.8
		c15.2-5.8,24.5-13.5,28.5-23.9c4-10.5,2.5-26.1-1.4-42.6c-4-16.6-10.4-34.2-16.3-48.6c-0.2-0.5,0-1.1,0.5-1.3
		c0.5-0.2,1.1,0,1.3,0.5c3.6,8.7,7.3,18.5,10.6,28.6c5,0.3,9.9,0.5,14.6,0.5C583.3,772.4,604.5,768,621.9,760.4L621.9,760.4z
		 M446.9,629.2c-1.4,4.8-2.7,9.9-4,15.3l0,0h0c-1.2,5.2-2.4,10.6-3.3,16.3c21.1-1.6,42.5-4.3,60.8-17.5c-4.4-2.7-8-6.2-10.3-10.5
		C473.6,632.9,458.9,631.8,446.9,629.2L446.9,629.2z"/>
	<path class="st5" d="M626.5,760.4c4.6,0.4,8.9,1.3,12.8,2.8c8.5,3.2,15.2,8.8,19.7,16.8c4.5,8,6.9,18.3,6.6,31
		c-0.3,14.2-3.9,31.4-11.4,51.5c-0.1,0.3-0.3,0.5-0.6,0.6c-18.2,18.9-25.9,36.8-26.3,52.3c-0.2,7.3,1.2,14,3.9,20.2
		c2.7,6.1,6.7,11.6,11.6,16.4c12.1,11.6,29.9,18.6,48.7,19.1c30,0.8,84.1-29.4,126.2-74.8c32.6-35.1,57.9-79.3,59.3-125.2
		c0-0.4,0-0.8,0-1.2c0.1-14.8-6.8-30.3-17.5-42.2c-10.6-11.9-25-20.1-39.7-20.5c-0.4,0-0.7,0-1.1,0c-25.1-0.1-49,13.1-70.4,32.6
		c-27.7,25.4-50.9,61.4-66.4,92.8c-0.2,0.5-0.8,0.7-1.3,0.4c-0.5-0.2-0.7-0.8-0.4-1.3c9.8-19.9,22.7-41.7,37.8-61.4
		c-0.1-0.1-0.1-0.3-0.1-0.4c-0.2-15.7-3.2-29.1-9.7-39.7c-6.3-10.5-16-18.4-29.6-23.5c-5.2,11.6-12.3,22.3-21.3,31.6
		C649.1,747,638.8,754.6,626.5,760.4L626.5,760.4z"/>
	<path class="st9" d="M868.4,527.5c0,0,0,0.1-0.1,0.1c-4.1,5.3-6.5,9.9-7.5,14c-1.3,5.3-0.3,9.7,2.5,13.2l0,0.1
		c2.9,3.6,7.5,6.4,13.2,8.5c9.9,3.6,22.9,5.1,35.3,5.1c16,0,30.6-3.6,41.2-9.2c10.6-5.6,17.2-13.2,17.2-21.1c0-4.1-1.1-8-3.6-11.6
		c-2.3-3.4-5.9-6.4-10.8-9c-0.2-0.1-0.3-0.2-0.4-0.3c-11.2,8.7-25.2,14.2-35.3,14.9c-6.3,0.4-12.8-0.6-19.4-2.9
		c-6.4-2.2-13-5.7-19.7-10.2C877,522.7,872.6,525.6,868.4,527.5L868.4,527.5z"/>
	<path class="st9" d="M882.5,517.6c6.5,4.4,12.8,7.6,18.9,9.8c6.4,2.2,12.6,3.2,18.7,2.8c10.8-0.7,26.2-7.1,37.6-17.2
		c8.9-7.9,15.3-18,14.9-29.2c-0.2-5.8-2.3-12.6-6.1-18.8c-3.2-5.2-7.6-9.9-13.1-13.2l-6.9,16.8c0,0.1-0.1,0.1-0.1,0.2
		c2,0.5,4,1.1,6,1.7c0.5,0.2,0.8,0.7,0.7,1.2c-0.2,0.5-0.7,0.8-1.2,0.7c-11.4-3.4-21.5-5.2-30.3-5.1c-8.6,0.1-15.8,2-21.4,6.1
		c-0.2,0.1-0.3,0.2-0.5,0.2c0.2,1.2,0.3,2.5,0.3,3.7c0.1,1.4,0,2.8-0.1,4.1c-0.9,12.5-6.6,24-14,32.6
		C884.8,515.2,883.6,516.4,882.5,517.6L882.5,517.6z"/>
	<path class="st3" d="M687.5,598.6c7.6-13,10.7-30.5,10.7-51.4c0-21.7-3.4-47-8.7-74.2c-5.8,1.6-11.7,2.9-17.6,4
		c-3.2,0.6-6.5,1.2-9.7,1.6c3.2,17.7,7.4,35.3,11.5,53C678.9,553.9,684.1,576.2,687.5,598.6L687.5,598.6z"/>
	<path class="st9" d="M584.5,476.1c0.3-0.1,0.6,0,0.8,0.1c26.7,4.6,56.8,4.5,86.2-1.1c50.1-9.5,98.1-34.9,123.7-80.3
		c-11.8,6.7-26.5,10.4-43.2,9.7l0,0c-3.7-0.1-7.5-0.5-11.4-1.1c-0.5-0.1-0.9-0.6-0.8-1.1c0.1-0.5,0.6-0.9,1.1-0.8
		c3.8,0.6,7.6,0.9,11.2,1.1h0c19.6,0.8,36.3-4.6,48.7-13.7c12.3-9,20.3-21.7,22.4-35.5c0.3-1.8,0.5-3.7,0.5-5.5l0-0.7
		c0.4-14.2-5.3-26.9-13.9-36.2c-8.6-9.3-20.2-15.1-31.6-15.5l-0.5,0c-21.5-0.6-35.9,13.2-51.1,27.7c-17.4,16.6-35.8,34.3-67.2,33.3
		c-11.5-0.3-20.6-5.9-27.5-13.9c-8.4-9.9-13.4-23.5-14.9-35.4c-1.2-9.8-0.2-18.9,2.8-26.3c2.5-6.1,6.3-11.1,11.1-14.2
		c4.9-3.2,10.9-4.6,17.8-3.6c6.6,0.9,13.9,4.1,21.9,9.9c4.2-5.7,8.6-9.4,13-11.3c5.8-2.6,11.5-2.2,16.9,0.4
		c5.3,2.5,10.2,7.1,14.6,13.1c7.8,10.7,13.6,25.9,15.9,41.2c13.5-12.6,27.2-23.4,46.8-22.8h0l0.5,0l0,0v0c2.2,0.1,4.5,0.4,6.7,0.8
		c-4.8-8.4-9.5-16.6-14.7-24.7c-5.5-8.6-11.5-16.9-18.3-24.8c-0.1-0.1-0.1-0.1-0.1-0.2c-51.3-9.8-99-6.9-140,10.3
		c-43.7,18.4-79.6,53.4-103.8,107.1c4.6,6.4,8.4,12.8,11.6,18.3l0,0l1.4,2.3c0.3,0.5,0.1,1.1-0.3,1.3c-0.5,0.3-1.1,0.1-1.3-0.3
		l-1.4-2.3l0,0l0,0c-10.8-18.6-28.2-48.4-63.5-46.9c-1.4,0.1-2.8,0.2-4.3,0.5c-9.6,1.9-19.1,8.5-26.1,18.1c-0.5,0.7-1,1.4-1.4,2.1
		l0.1,0.6c0.1,0.5-0.3,1-0.8,1.1c-0.1,0-0.2,0-0.3,0c-5.6,9.1-8.9,20.3-8.4,32.4c0.1,2.9,0.5,5.8,1,8.7c4.9,25.1,18,41.4,36.6,51
		c21.4,11,50.2,13.3,82.3,9.9c0.2,0,0.4,0,0.6,0.1c0.5,0.3,1.1,0.6,1.7,0.9C549.3,467.5,566.1,472.9,584.5,476.1L584.5,476.1z"/>
	<path class="st9" d="M586.3,478.4c1.7,4.4,3.2,8.8,4.5,13.1c1.5,4.8,2.7,9.5,3.9,14c6.6,1.6,12.8,3.7,18,6.4
		c10.8,5.6,17.7,13.9,17.1,26.1c-0.2,3.5-1,7.4-2.5,11.5c-1.4,3.7-3.4,7.7-6,12c1.6,1.1,3,2.4,4.3,3.7l0.1,0.2c0.1,0,0.3,0,0.4,0.1
		c2.1,1,4.5,1.8,6.9,2.3c2.5,0.5,5.2,0.7,8,0.6c14.4-0.5,17.6-13,15.6-29.9c-2-17.3-9.5-39.1-16.2-57.6
		C621.8,482.1,603.4,481.2,586.3,478.4L586.3,478.4z"/>
	<path class="st5" d="M592.6,505.1c-1.1-4.2-2.3-8.6-3.6-13c-1.4-4.6-3-9.3-4.9-14.1c-18.6-3.3-35.5-8.8-49.4-16.3
		c-0.5-0.2-1-0.5-1.5-0.8c-2.5,0.3-4.9,0.5-7.4,0.7c9.8,2,19.8,6.7,28.1,13.2c9.2,7.1,16.5,16.6,19.6,27.4
		C580,502.8,586.5,503.7,592.6,505.1L592.6,505.1z"/>
	<path class="st9" d="M446.3,566.9c-0.5,0.2-1.1-0.1-1.2-0.6c-0.2-0.5,0.1-1.1,0.6-1.2c6.1-2,12.2-3.5,18.2-4.6
		c5.9-1,11.7-1.6,17.6-1.7c-3.4-19.6-0.1-32.6,6.8-41.2c8.9-11.1,23.6-14.8,37.8-15.9c-0.2-0.5-0.4-1.1-0.6-1.6
		c-3-6.6-10.5-11.7-19.3-14.6c-8.9-2.9-19.3-3.6-28.1-1.1c-1.6,0.5-3.2,1-4.7,1.7l-9.8,13.9c0,0.1-0.1,0.2-0.1,0.2
		c-8.6,12.5-24.3,38.2-35.7,61.1c-7.9,15.8-13.7,30.3-13.8,38.1c-0.1,11.6,7.5,19.4,20.8,24.4c13.5,5.1,32.8,7.2,55.9,7.2
		c0.4,0,0.7,0.2,0.9,0.5l0,0c3.9,8,12.8,12.8,23.3,15.9c10.6,3.1,22.8,4.4,33,5.2c4.2,0.3,8.3,0.3,12.3,0.1
		c14.4-1,26.8-5.9,35.8-12.9c8.9-6.9,14.5-15.9,15.2-25.4c0.1-1,0.1-2,0.1-3c-11.3,2.4-22.7,3.9-34.4,4.4
		c-12.1,0.5-24.4-0.2-37.1-2.2c-0.5-0.1-0.9-0.6-0.8-1.1c0.1-0.5,0.6-0.9,1.1-0.8c12.6,2,24.8,2.6,36.7,2.2
		c11.8-0.4,23.4-2,34.9-4.5c0.1-0.1,0.3-0.1,0.4-0.1c0,0,0.1,0,0.1,0c4.9-1.2,9.3-4.5,12.4-8.9c3.4-4.7,5.5-10.6,5.6-16.4
		c0.1-6.6-1.9-12.8-6.1-17.4c-3.9-4.3-9.7-7.3-17.3-8.3c-10.3-1.3-21.3-0.7-32.3,0c-10.9,0.7-21.7,1.3-32.1,0
		c-0.5-0.1-0.9-0.6-0.8-1.1c0.1-0.5,0.6-0.9,1.1-0.8c10.2,1.3,21,0.6,31.7,0c11-0.7,22.1-1.3,32.6,0c4.9,0.6,9.1,2.1,12.6,4.1
		c2.6-4.1,4.5-8,5.8-11.6c1.5-3.9,2.2-7.6,2.4-10.9c0.5-11.3-6-19-16.1-24.3c-10.3-5.4-24.4-8.2-38.7-9.7
		c-7.4-0.7-14.9-1.1-21.9-1.1c-9.1-0.1-17.5,0.2-23.9,0.6c-14.1,0.9-28.8,4.4-37.5,15.2c-8.7,10.8-11.3,29.2-1.2,59.8
		c0.2,0.5-0.1,1.1-0.6,1.2c-0.5,0.2-1.1-0.1-1.2-0.6c-2.2-6.7-3.8-12.8-4.9-18.5c-5.9,0-11.7,0.6-17.6,1.6
		C458.2,563.4,452.2,565,446.3,566.9L446.3,566.9z"/>
	<path class="st3" d="M528.1,501.5c6.3-0.4,14.4-0.7,23.1-0.6c6.5,0.1,13.3,0.4,20.2,1c-3.1-10.1-10-18.9-18.7-25.6
		c-9.8-7.6-21.8-12.5-33-13.7c-9.6-1-26.2,1.9-39.3,8.1c-5.1,2.4-9.6,5.3-12.9,8.6c-3.3,3.3-5.4,7-5.9,11.1
		c-0.2,2.3,0.1,4.8,1.1,7.5l9.3-13.2l0,0c0.1-0.1,0.2-0.2,0.4-0.3c1.7-0.8,3.4-1.4,5.2-1.9c9.2-2.6,19.9-1.9,29.2,1.1
		c9.4,3.1,17.2,8.6,20.5,15.7C527.6,500,527.9,500.8,528.1,501.5L528.1,501.5z"/>
	<path class="st3" d="M546.3,654.4c-9.9-0.8-21.6-2.1-31.9-5.1c-4.4-1.3-8.5-2.9-12.1-4.9c-21.1,15.5-46,17.2-70,18.9
		c-3,0.2-6,0.4-9.1,0.7c-3.4,0.3-5.4,5.4-6.1,11.8c-0.3,2.6-0.3,5.3-0.1,8c0.2,2.7,0.6,5.4,1.3,7.8c1.5,5.6,4.3,9.8,8.3,9.5
		c22.3-1.6,45.8-4.6,67.1-11.7C514.4,682.5,533,671.6,546.3,654.4L546.3,654.4z"/>
	<path class="st5" d="M729.4,318c-0.1-0.1-0.1-0.2-0.1-0.4c-2.1-15.3-7.9-30.5-15.7-41.3c-4.2-5.7-8.9-10.1-13.8-12.5
		c-4.9-2.3-10.1-2.7-15.2-0.4c-4.3,1.9-8.6,5.6-12.8,11.5c-0.3,0.4-0.9,0.5-1.4,0.2l0,0c-8-6-15.3-9.2-21.8-10.1
		c-6.4-0.9-11.9,0.4-16.4,3.3c-4.5,2.9-8.1,7.6-10.4,13.3c-2.9,7.1-3.9,15.9-2.7,25.3c1.5,11.6,6.2,24.8,14.4,34.4
		c6.5,7.6,15.2,12.9,26.1,13.3c20.8,0.6,35.9-7.2,48.8-17.5c-0.6,0.1-1.2,0.2-1.8,0.2c-5.9,0-10.7-6.6-10.7-14.8
		c0-8.2,4.8-14.8,10.7-14.8c5.9,0,10.7,6.6,10.7,14.8c0,3.3-0.8,6.4-2.1,8.8c3.5-3.1,6.9-6.4,10.3-9.6
		C726.7,320.6,728.1,319.3,729.4,318L729.4,318z"/>
	<path class="st0" d="M728.2,422.1c0.5-0.2,1.1,0,1.3,0.5c0.2,0.5,0,1.1-0.5,1.3c-14.4,5.8-35.4,10.4-56.8,12.1
		c-15.8,1.3-31.9,0.9-45.5-1.7l-0.3,0.5c-5.3,8.4-12.6,20-22.7,19.5c-0.7,0-1.3-0.1-1.9-0.3c-5.6-1.3-9.3-7.1-11.5-14.5
		c-2.1-7.3-2.9-16.2-2.5-24.2c0.2-3.8,0.6-7.3,1.2-10.4c-0.5,0.2-1,0.4-1.5,0.6c-4.2,1.9-6.6,4.6-7.5,8.1c-0.1,0.5-0.7,0.8-1.2,0.7
		c-0.5-0.1-0.8-0.7-0.7-1.2c1-4.1,3.7-7.3,8.6-9.4c4.7-2,11.4-3.1,20.5-2.8c0.5,0,1,0.5,0.9,1c0,0.5-0.5,1-1,0.9
		c-6.6-0.2-11.9,0.3-16,1.4c0.2,2.5,0.8,4.8,1.7,7c4.1,10.2,15.1,16.6,29.4,20.1c14.5,3.5,32.3,4.1,49.9,2.7
		C693.2,432.4,714,427.8,728.2,422.1L728.2,422.1z"/>
	<path class="st0" d="M508.7,403.8c0.3,0.4,0.3,1-0.1,1.4c-0.4,0.3-1,0.3-1.4-0.1c-8.1-9.6-18.1-16-27.8-20.1
		c-5,4.9-7.7,10.4-8.6,15.8c-0.6,3.6-0.3,7.1,0.7,10.4c1,3.2,2.7,6.2,5.1,8.6c3.1,3.2,7.3,5.4,12.3,6.2c0.5,0.1,0.9,0.6,0.8,1.1
		c-0.1,0.5-0.6,0.9-1.1,0.8c-5.4-0.9-10-3.3-13.4-6.8c-2.6-2.6-4.5-5.8-5.6-9.3c-0.2-0.6-0.4-1.3-0.5-1.9l-0.4-0.1l0,0
		c-6-2.3-10.6-6.7-13-12.2c-2.4-5.4-2.8-11.7-0.8-18c-1.3-0.1-2.5-0.1-3.7,0c-4.6,0.2-8.1,1-9.6,2.4c-0.4,0.3-0.7,0.7-0.7,1
		c-0.1,0.5-0.7,0.8-1.2,0.7c-0.5-0.1-0.8-0.7-0.7-1.2c0.2-0.8,0.7-1.5,1.4-2.1c1.9-1.6,5.8-2.6,10.8-2.8c4.9-0.2,11.1,0.4,17.7,2.1
		C482.1,382.8,497.3,390.2,508.7,403.8L508.7,403.8z"/>
	<path class="st10" d="M477.5,384.2c-3.1-1.2-6.1-2.1-9-2.8c-4.1-1-8-1.6-11.5-1.9l0,0.1c-2.1,6-1.7,12,0.6,17.1
		c2.2,4.8,6.1,8.8,11.3,10.9c-0.3-2.3-0.3-4.7,0.1-7.1C469.8,395,472.5,389.3,477.5,384.2L477.5,384.2z"/>
	<path class="st3" d="M453.9,757c-7.9-12.3-15.3-24.8-17.2-38.7c-0.4-2.9-0.7-5.7-1-8.5c-0.2-2.5-0.4-5-0.5-7.4
		c-2.8,0.3-5.7,0.5-8.5,0.7c-5.1,0.4-8.5-4.5-10.3-10.9c-0.7-2.5-1.1-5.4-1.3-8.2c-0.2-2.8-0.2-5.7,0.1-8.4
		c0.8-7.3,3.4-13.2,7.9-13.5c2.9-0.2,6-0.4,9.1-0.7c1.8-0.1,3.7-0.3,5.5-0.4c1-6,2.1-11.6,3.4-16.9h0c1.3-5.4,2.6-10.5,4-15.2
		c-3.9-0.9-7.6-2-10.9-3.2c-14-5.3-22.1-13.7-22-26.2c0-8.1,6-22.9,14-39c11.2-22.6,26.5-47.8,35.3-60.6c-1.5-3.4-2-6.6-1.7-9.6
		c0.5-4.6,2.8-8.7,6.4-12.3c3.5-3.5,8.2-6.5,13.5-9c6.5-3.1,13.8-5.3,20.7-6.7c-18-0.6-34.3-3.8-47.9-10.3
		c-21.3,44.7-38.6,91.6-49.8,142.1c-11.3,50.5-16.5,104.6-13.8,163.5c11,2.6,21.8,4.1,32.4,4.2c10.6,0.1,21-1.2,31.2-4.2L453.9,757
		L453.9,757z"/>
	<path class="st9" d="M886.8,568.2c-7.4,5.2-11.8,10.7-13.8,15.8c-1.4,3.7-1.4,7.3-0.3,10.4c1.1,3.2,3.4,6.1,6.8,8.4
		c5.4,3.7,13.3,5.9,23.4,5.9c16,0,30.6-3.6,41.2-9.2c10.6-5.6,17.2-13.2,17.2-21.1c0-3.2-0.6-6.3-2.1-9.1c-1.4-2.8-3.5-5.4-6.6-7.7
		c-10.8,5.4-25.2,8.8-41,8.8C903.4,570.4,894.7,569.7,886.8,568.2L886.8,568.2z"/>
	<path class="st0" d="M668,306.7c7.5,0,13.6,8.4,13.6,18.8c0,10.4-6.1,18.8-13.6,18.8c-7.5,0-13.6-8.4-13.6-18.8
		C654.3,315.1,660.4,306.7,668,306.7L668,306.7z"/>
</g>
</svg>
